<?xml version="1.0" encoding="UTF-8" standalone="no"?>
<!-- Created with Inkscape (http://www.inkscape.org/) -->

<svg
   xmlns:dc="http://purl.org/dc/elements/1.1/"
   xmlns:cc="http://creativecommons.org/ns#"
   xmlns:rdf="http://www.w3.org/1999/02/22-rdf-syntax-ns#"
   xmlns:svg="http://www.w3.org/2000/svg"
   xmlns="http://www.w3.org/2000/svg"
   xmlns:sodipodi="http://sodipodi.sourceforge.net/DTD/sodipodi-0.dtd"
   xmlns:inkscape="http://www.inkscape.org/namespaces/inkscape"
   width="128"
   height="128"
   id="svg86995"
   version="1.1"
   inkscape:version="0.48.3.1 r9886"
   sodipodi:docname="applications.svg">
  <defs
     id="defs86997">
    <clipPath
       clipPathUnits="userSpaceOnUse"
       id="clipPath100084">
      <rect
         style="fill:#ffffff;fill-opacity:1;stroke:#ffd42a;stroke-width:43.60042191;stroke-linecap:round;stroke-miterlimit:4;stroke-opacity:1;stroke-dasharray:none;stroke-dashoffset:0"
         id="rect100086"
         width="2490.1445"
         height="2385.9058"
         x="-1504.0725"
         y="-252.47929"
         ry="344.48175" />
    </clipPath>
  </defs>
  <sodipodi:namedview
     id="base"
     pagecolor="#ffffff"
     bordercolor="#ffffff"
     borderopacity="0.0"
     inkscape:pageopacity="0.0"
     inkscape:pageshadow="0"
     inkscape:zoom="14.481547"
     inkscape:cx="42.116638"
     inkscape:cy="69.912143"
     inkscape:document-units="px"
     inkscape:current-layer="layer1"
     showgrid="false"
     inkscape:window-width="1366"
     inkscape:window-height="718"
     inkscape:window-x="0"
     inkscape:window-y="25"
     inkscape:window-maximized="1"
     showborder="true" />
  <metadata
     id="metadata87000">
    <rdf:RDF>
      <cc:Work
         rdf:about="">
        <dc:format>image/svg+xml</dc:format>
        <dc:type
           rdf:resource="http://purl.org/dc/dcmitype/StillImage" />
        <dc:title />
      </cc:Work>
    </rdf:RDF>
  </metadata>
  <g
     inkscape:label="Layer 1"
     inkscape:groupmode="layer"
     id="layer1"
     transform="translate(0,-924.36218)">
    <rect
       style="fill:none;stroke:#000000;stroke-width:1.29332530000000001;stroke-miterlimit:4;stroke-dasharray:none"
       id="rect100088-1"
       width="126.72865"
       height="115.90645"
       x="0.67119938"
       y="935.81177"
       ry="10.570561" />
    <path
       inkscape:connector-curvature="0"
       id="rect87003"
       d="m 49.322495,942.37147 30.436569,0 c 0.950241,0 1.715217,0.76257 1.715217,1.70976 l 0,26.26691 c 0,0.94721 -0.764976,1.70977 -1.715217,1.70977 l -30.436569,0 c -0.950244,0 -1.715236,-0.76256 -1.715236,-1.70977 l 0,-26.26691 c 0,-0.94719 0.764992,-1.70976 1.715236,-1.70976 z"
       style="fill:none;stroke:#000000;stroke-width:1.58640575;stroke-linecap:round;stroke-miterlimit:4;stroke-opacity:1;stroke-dashoffset:0" />
    <path
       inkscape:connector-curvature="0"
       id="rect87003-0"
       d="m 89.22805,942.73347 30.43657,0 c 0.95024,0 1.71524,0.76261 1.71524,1.70982 l 0,26.26688 c 0,0.94719 -0.765,1.70979 -1.71524,1.70979 l -30.43657,0 c -0.950224,0 -1.715219,-0.7626 -1.715219,-1.70979 l 0,-26.26688 c 0,-0.94721 0.764995,-1.70982 1.715219,-1.70982 z"
       style="fill:none;stroke:#000000;stroke-width:1.58640575;stroke-linecap:round;stroke-miterlimit:4;stroke-opacity:1;stroke-dashoffset:0" />
    <path
       inkscape:connector-curvature="0"
       id="rect87003-2"
       d="m 49.186299,977.8866 30.436579,0 c 0.950234,0 1.715219,0.76256 1.715219,1.70977 l 0,26.26683 c 0,0.9474 -0.764985,1.7099 -1.715219,1.7099 l -30.436579,0 c -0.950231,0 -1.715234,-0.7625 -1.715234,-1.7099 l 0,-26.26683 c 0,-0.94721 0.765003,-1.70977 1.715234,-1.70977 z"
       style="fill:none;stroke:#000000;stroke-width:1.58640575;stroke-linecap:round;stroke-miterlimit:4;stroke-opacity:1;stroke-dashoffset:0" />
    <path
       inkscape:connector-curvature="0"
       id="rect87003-4"
       d="m 89.046467,978.1581 30.436573,0 c 0.95024,0 1.71522,0.76259 1.71522,1.70978 l 0,26.26682 c 0,0.9474 -0.76498,1.7099 -1.71522,1.7099 l -30.436573,0 c -0.950242,0 -1.715227,-0.7625 -1.715227,-1.7099 l 0,-26.26682 c 0,-0.94719 0.764985,-1.70978 1.715227,-1.70978 z"
       style="fill:none;stroke:#000000;stroke-width:1.58640575;stroke-linecap:round;stroke-miterlimit:4;stroke-opacity:1;stroke-dashoffset:0" />
    <path
       inkscape:connector-curvature="0"
       id="rect87003-26"
       d="m 49.273749,1014.0643 30.436567,0 c 0.950231,0 1.715228,0.7625 1.715228,1.7099 l 0,26.2667 c 0,0.9474 -0.764997,1.7097 -1.715228,1.7097 l -30.436567,0 c -0.950242,0 -1.715237,-0.7623 -1.715237,-1.7097 l 0,-26.2667 c 0,-0.9474 0.764995,-1.7099 1.715237,-1.7099 z"
       style="fill:none;stroke:#000000;stroke-width:1.58640575;stroke-linecap:round;stroke-miterlimit:4;stroke-opacity:1;stroke-dashoffset:0" />
    <path
       inkscape:connector-curvature="0"
       id="rect87003-0-1"
       d="m 89.179311,1014.4264 30.436589,0 c 0.95022,0 1.71522,0.7623 1.71522,1.7095 l 0,26.2671 c 0,0.9472 -0.765,1.7097 -1.71522,1.7097 l -30.436589,0 c -0.950242,0 -1.715227,-0.7625 -1.715227,-1.7097 l 0,-26.2671 c 0,-0.9472 0.764985,-1.7095 1.715227,-1.7095 z"
       style="fill:none;stroke:#000000;stroke-width:1.58640575;stroke-linecap:round;stroke-miterlimit:4;stroke-opacity:1;stroke-dashoffset:0" />
    <path
       inkscape:connector-curvature="0"
       id="rect87003-0-64"
       d="m 9.130004,942.55374 30.436559,0 c 0.950242,0 1.715236,0.76258 1.715236,1.70977 l 0,26.2669 c 0,0.94721 -0.764994,1.70977 -1.715236,1.70977 l -30.436559,0 c -0.9502419,0 -1.7152271,-0.76256 -1.7152271,-1.70977 l 0,-26.2669 c 0,-0.94719 0.7649852,-1.70977 1.7152271,-1.70977 z"
       style="fill:none;stroke:#000000;stroke-width:1.58640575;stroke-linecap:round;stroke-miterlimit:4;stroke-opacity:1;stroke-dashoffset:0" />
    <path
       inkscape:connector-curvature="0"
       id="rect87003-4-87"
       d="m 8.9484122,977.97835 30.4365588,0 c 0.950231,0 1.715237,0.76258 1.715237,1.70978 l 0,26.26687 c 0,0.9474 -0.765006,1.7097 -1.715237,1.7097 l -30.4365588,0 c -0.950242,0 -1.7152364,-0.7623 -1.7152364,-1.7097 l 0,-26.26687 c 0,-0.9472 0.7649944,-1.70978 1.7152364,-1.70978 z"
       style="fill:none;stroke:#000000;stroke-width:1.58640575;stroke-linecap:round;stroke-miterlimit:4;stroke-opacity:1;stroke-dashoffset:0" />
    <path
       inkscape:connector-curvature="0"
       id="rect87003-9-8"
       d="m 9.8316392,1013.761 30.4365578,0 c 0.950242,0 1.715236,0.7625 1.715236,1.7097 l 0,26.2667 c 0,0.9474 -0.764994,1.71 -1.715236,1.71 l -30.4365578,0 c -0.9502421,0 -1.7152273,-0.7626 -1.7152273,-1.71 l 0,-26.2667 c 0,-0.9472 0.7649852,-1.7097 1.7152273,-1.7097 z"
       style="fill:none;stroke:#000000;stroke-width:1.58640575;stroke-linecap:round;stroke-miterlimit:4;stroke-opacity:1;stroke-dashoffset:0" />
    <g
       id="g3"
       style="fill:#4d4d4d"
       transform="matrix(0.20355924,0,0,0.20291157,54.116721,1021.6563)">
      <g
         id="g5"
         style="fill:#4d4d4d">
        <path
           d="m 98.656,80.699 -9.375,-18.5 c -0.521,-1.546 -1.59,-2.9 -2.932,-3.884 1.209,-1.048 1.988,-2.574 1.988,-4.294 V 10.709 C 88.338,7.56 85.776,5 82.631,5 H 17.367 c -3.148,0 -5.708,2.56 -5.708,5.709 v 43.312 c 0,1.721 0.782,3.248 1.989,4.295 -1.34,0.983 -2.408,2.338 -2.929,3.883 L 1.344,80.698 c -0.633,1.877 -0.386,7.751 0.68,9.232 1.064,1.482 2.809,2.332 4.789,2.332 h 86.375 c 1.979,0 3.725,-0.85 4.789,-2.332 1.065,-1.481 1.311,-7.355 0.679,-9.231 z m -5.468,4.345 H 6.812 c -1.915,0 -2.979,-1.485 -2.368,-3.299 l 9.375,-18.498 c 0.614,-1.812 2.678,-3.297 4.592,-3.297 h 63.176 c 1.913,0 3.979,1.484 4.591,3.297 l 9.375,18.498 c 0.612,1.814 -0.453,3.299 -2.365,3.299 z M 14.932,10.709 c 0,-1.344 1.092,-2.436 2.435,-2.436 h 65.264 c 1.342,0 2.436,1.092 2.436,2.436 v 43.312 c 0,1.343 -1.094,2.435 -2.436,2.435 H 17.367 c -1.342,0 -2.435,-1.092 -2.435,-2.435 V 10.709 z"
           id="path7"
           style="fill:#4d4d4d"
           inkscape:connector-curvature="0" />
        <path
           d="m 61.964,72.913 c -0.12,-0.828 -0.937,-1.478 -1.855,-1.478 h -20.22 c -0.92,0 -1.736,0.649 -1.855,1.479 l -1.656,6.943 c -0.062,0.426 0.076,0.852 0.38,1.165 0.302,0.313 0.748,0.494 1.224,0.494 h 24.032 c 0.477,0 0.924,-0.181 1.225,-0.494 0.304,-0.313 0.441,-0.739 0.379,-1.165 l -1.654,-6.944 z"
           id="path9"
           style="fill:#4d4d4d"
           inkscape:connector-curvature="0" />
        <path
           d="m 20.273,54.055 h 59.453 c 1.831,0 3.329,-1.499 3.329,-3.332 V 14.005 c 0,-1.831 -1.498,-3.33 -3.329,-3.33 H 20.273 c -1.832,0 -3.33,1.499 -3.33,3.33 v 36.718 c 0,1.833 1.498,3.332 3.33,3.332 z"
           id="path11"
           style="fill:#4d4d4d"
           inkscape:connector-curvature="0" />
      </g>
    </g>
    <g
       transform="matrix(0.00871037,0,0,0.01400539,58.866945,1016.7209)"
       id="g4"
       style="fill:#000000;stroke:#ffffff;stroke-width:60.14211655;stroke-linejoin:round;stroke-miterlimit:4;stroke-dasharray:none">
      <path
         style="fill:#000000;stroke:#ffffff;stroke-width:60.14211655;stroke-linejoin:round;stroke-miterlimit:4;stroke-dasharray:none"
         inkscape:connector-curvature="0"
         d="m 943,997 357,-357 -420,0 0,-640 -480,0 0,640 -420,0 357,357 303,293 303,-293"
         id="path6" />
    </g>
    <path
       id="path101549"
       d="m 116.3781,1020.4756 -2.86952,-2.8709 c -0.39543,-0.3984 -1.18448,-0.2599 -1.75382,0.3061 l -2.62844,2.6111 -3.61599,-3.7427 H 94.248038 v 22.9307 h 17.721122 v -13.421 l 4.09585,-4.0683 c 0.56774,-0.5642 0.7099,-1.348 0.31309,-1.745 z m -10.56596,-0.7047 1.99328,2.0635 -1.09015,1.0838 h -0.90313 v -3.1473 z m 0.41338,11.1146 -3.96427,1.6002 -0.8523,-0.8524 1.61971,-3.947 3.19686,3.1992 z m 3.87732,6.966 H 96.112515 v -19.2136 h 8.300755 v 5.6742 h 0.89784 l -1.06117,1.054 h -6.146892 v 0.93 h 5.211092 l -0.84011,0.8345 -0.85965,2.0927 h -3.511332 v 0.9305 h 3.129462 l -1.20196,2.9276 h -1.927502 v 0.9299 h 10.014092 v -0.9299 h -5.39995 l 4.06388,-1.6407 1.29397,-1.2865 h 0.0421 v -0.039 l 1.98595,-1.9724 v 9.7099 z"
       inkscape:connector-curvature="0" />
    <path
       id="path101559"
       d="m 104.23015,980.95469 -12.583233,9.36389 v 14.89302 h 25.163423 v -14.89302 l -12.58019,-9.36389 z m -3.48111,6.68252 c 0.37015,-0.67278 0.87821,-1.17907 1.52364,-1.51558 0.64393,-0.3397 1.37946,-0.50949 2.21009,-0.50949 0.70133,0 1.32689,0.13714 1.87418,0.4082 0.54732,0.27438 0.96326,0.65963 1.25315,1.16274 0.28685,0.50298 0.43254,1.05162 0.43254,1.64594 0,0.70862 -0.21941,1.34886 -0.65674,1.92365 -0.55058,0.72201 -1.25315,1.08455 -2.11322,1.08455 -0.23102,0 -0.40464,-0.0383 -0.52266,-0.12118 -0.11624,-0.0816 -0.19653,-0.19926 -0.23427,-0.35604 -0.32763,0.31673 -0.70935,0.47696 -1.13839,0.47696 -0.46376,0 -0.84701,-0.16023 -1.15173,-0.47696 -0.30473,-0.32018 -0.45873,-0.7447 -0.45873,-1.2704 0,-0.65644 0.18344,-1.25101 0.55209,-1.78984 0.44715,-0.6563 1.01735,-0.98644 1.71513,-0.98644 0.49647,0 0.86336,0.18931 1.09939,0.56829 l 0.10644,-0.46368 h 1.10594 l -0.63237,2.99172 c -0.0393,0.1893 -0.0589,0.31025 -0.0589,0.3656 0,0.0714 0.0148,0.12119 0.0472,0.15678 0.0311,0.037 0.0705,0.0524 0.11475,0.0524 0.13588,0 0.30801,-0.079 0.51911,-0.24185 0.28512,-0.20897 0.5146,-0.49636 0.68974,-0.84894 0.17689,-0.35602 0.26547,-0.72519 0.26547,-1.10724 0,-0.68259 -0.24734,-1.2542 -0.74382,-1.71803 -0.498,-0.45717 -1.19251,-0.68895 -2.08203,-0.68895 -0.75691,0 -1.39732,0.15358 -1.92323,0.46381 -0.52417,0.30373 -0.91898,0.73808 -1.18948,1.29654 -0.26547,0.55504 -0.39809,1.13647 -0.39809,1.74073 0,0.58462 0.15073,1.12026 0.44565,1.60028 0.29969,0.48346 0.7159,0.83272 1.25162,1.05507 0.53724,0.21903 1.15175,0.33 1.84297,0.33 0.66531,0 1.23855,-0.0918 1.72018,-0.27794 0.47986,-0.18599 0.86662,-0.46039 1.15977,-0.83275 h 0.88953 c -0.2783,0.56497 -0.70609,1.00596 -1.28282,1.32909 -0.66179,0.36585 -1.46954,0.54903 -2.41795,0.54903 -0.9225,0 -1.7169,-0.15358 -2.38525,-0.46382 -0.67161,-0.31037 -1.16808,-0.76754 -1.49571,-1.37194 -0.32587,-0.60426 -0.48817,-1.26391 -0.48817,-1.97594 0,-0.78006 0.18293,-1.50857 0.55485,-2.18453 z m -8.214094,2.97859 9.284034,6.20567 -9.284034,7.16223 v -13.3679 z m 0.70432,13.8448 10.990884,-8.47899 10.98786,8.47899 H 93.239266 z m 22.683304,-0.4769 -9.28404,-7.16248 9.28404,-6.20568 v 13.36816 z M 104.6841,988.31967 c 0.14745,0.16646 0.22119,0.40808 0.22119,0.72162 0,0.2809 -0.0556,0.58462 -0.16232,0.908 -0.10645,0.32668 -0.23426,0.57492 -0.38173,0.74483 -0.10309,0.11736 -0.2096,0.20564 -0.31604,0.26124 -0.13942,0.0779 -0.28686,0.11737 -0.44565,0.11737 -0.21288,0 -0.38978,-0.0855 -0.53573,-0.25155 -0.14243,-0.16673 -0.21288,-0.4244 -0.21288,-0.77738 0,-0.26457 0.0508,-0.56841 0.154,-0.91131 0.10318,-0.34276 0.25716,-0.60425 0.46049,-0.79037 0.20457,-0.18612 0.42576,-0.27732 0.66507,-0.27732 0.2227,0 0.40764,0.0842 0.5536,0.25449 z"
       inkscape:connector-curvature="0" />
    <path
       id="path101569"
       d="m 19.215479,1023.795 11.236467,-5.3084 c 0.284363,0.1172 0.609301,0.1301 0.907755,-0.012 0.55963,-0.2633 0.799118,-0.9295 0.534563,-1.4907 -0.265719,-0.5575 -0.935674,-0.7961 -1.495306,-0.5296 -0.299881,0.1395 -0.495657,0.3964 -0.584233,0.688 l -14.08721,6.6529 h -1.338194 v 16.3496 h 22.382685 v -16.3496 H 19.215479 z m -1.464034,12.953 h -0.74611 v -5.3703 h 0.74611 v 5.3703 z m 2.706043,0 h -0.746109 v -5.3703 h 0.746109 v 5.3703 z m 2.707697,0 h -0.746098 v -5.3703 h 0.746098 v 5.3703 z m 2.7046,0 h -0.746099 v -5.3703 h 0.746099 v 5.3703 z m 5.592575,0 c -1.486,0 -2.691947,-1.2023 -2.691947,-2.6867 0,-1.4814 1.206187,-2.6836 2.691947,-2.6836 1.487442,0 2.693622,1.2023 2.693622,2.6836 0,1.4845 -1.20618,2.6867 -2.693622,2.6867 z m 2.693622,-7.9547 H 17.005335 v -2.7829 h 17.150647 v 2.7829 z"
       inkscape:connector-curvature="0" />
    <g
       id="g101599"
       transform="matrix(0.24466761,0,0,0.24388915,92.897719,945.04803)">
      <path
         id="path101579"
         d="M 15.281,66.527 C 11.369,51.673 10.558,36.334 19.502,22.871 25.92,13.211 37.953,8.5 50.002,8.5 c 12.957,0 23.095,4.306 29.938,13.516 9.817,13.212 8.66,29.667 4.718,44.511 -1.049,3.947 5.48,5.623 6.532,1.679 C 95.636,51.458 96.297,32.809 85.79,17.831 78.008,6.744 64.612,0.327 50.527,0.011 36.295,-0.309 23.177,6.461 14.878,16.998 3.384,31.587 4.354,51.523 8.751,68.206 c 1.039,3.948 7.572,2.273 6.53,-1.679 l 0,0 z"
         inkscape:connector-curvature="0" />
      <polygon
         id="polygon101581"
         points="78.301,69.063 73.271,93.17 79.555,94.307 84.588,70.202 " />
      <path
         id="path101583"
         d="m 60.373,94.832 c -0.48,2.3 1.84,4.65 5.178,5.258 l 0,0 c 3.338,0.604 6.435,-0.77 6.916,-3.07 l 6.876,-32.961 c 0.484,-2.301 -1.838,-4.656 -5.174,-5.262 l 0,0 c -3.338,-0.604 -6.437,0.771 -6.912,3.071 l -6.884,32.964 z"
         inkscape:connector-curvature="0" />
      <path
         id="path101585"
         d="m 82.131,89.794 c -0.188,0.901 0.304,1.743 1.097,1.886 l 1.481,0.27 c 0.792,0.145 1.588,-0.467 1.775,-1.363 L 90.897,69.449 C 91.084,68.55 90.592,67.71 89.799,67.563 L 88.32,67.292 c -0.795,-0.144 -1.592,0.472 -1.779,1.366 l -4.41,21.136 z"
         inkscape:connector-curvature="0" />
      <polygon
         id="polygon101587"
         points="21.683,69.063 26.713,93.168 20.429,94.307 15.397,70.202 " />
      <path
         id="path101589"
         d="m 39.608,94.83 c 0.481,2.302 -1.837,4.65 -5.174,5.26 l 0,0 c -3.338,0.604 -6.438,-0.77 -6.917,-3.07 L 20.638,64.059 c -0.479,-2.301 1.837,-4.656 5.175,-5.262 l 0,0 c 3.34,-0.604 6.437,0.771 6.917,3.071 l 6.878,32.962 z"
         inkscape:connector-curvature="0" />
      <path
         id="path101591"
         d="m 17.853,89.794 c 0.185,0.899 -0.306,1.743 -1.099,1.883 l -1.479,0.271 c -0.793,0.145 -1.59,-0.467 -1.777,-1.361 L 9.085,69.445 c -0.188,-0.896 0.306,-1.738 1.1,-1.885 l 1.478,-0.269 c 0.796,-0.146 1.591,0.467 1.777,1.364 l 4.413,21.139 z"
         inkscape:connector-curvature="0" />
    </g>
    <g
       id="g101633"
       transform="matrix(0.26052302,0,0,0.2596941,51.520286,979.88151)">
      <circle
         id="circle101619"
         r="6.9439998"
         cy="6.9439998"
         cx="44.445"
         sodipodi:cx="44.445"
         sodipodi:cy="6.9439998"
         sodipodi:rx="6.9439998"
         sodipodi:ry="6.9439998"
         d="m 51.388999,6.9439998 c 0,3.8350652 -3.108934,6.9440002 -6.943999,6.9440002 -3.835065,0 -6.944,-3.108935 -6.944,-6.9440002 C 37.501,3.1089346 40.609935,0 44.445,0 c 3.835065,0 6.943999,3.1089346 6.943999,6.9439998 z" />
      <circle
         id="circle101621"
         r="11.111"
         cy="34.722"
         cx="44.445"
         sodipodi:cx="44.445"
         sodipodi:cy="34.722"
         sodipodi:rx="11.111"
         sodipodi:ry="11.111"
         d="m 55.556,34.722 c 0,6.136436 -4.974564,11.111 -11.111,11.111 -6.136436,0 -11.111,-4.974564 -11.111,-11.111 0,-6.136436 4.974564,-11.111 11.111,-11.111 6.136436,0 11.111,4.974564 11.111,11.111 z" />
      <path
         id="path101623"
         d="m 19.445,61.111 v 6.944 h 50 V 61.111 C 69.445,54.974 64.47,50 58.334,50 H 30.556 C 24.42,50 19.445,54.974 19.445,61.111 z"
         inkscape:connector-curvature="0" />
      <path
         id="path101625"
         d="m 94.445,100 c 0,0 -5.556,-9.723 -5.556,-22.221 V 5.556 H 56.863 c 0.051,0.456 0.082,0.919 0.082,1.389 0,2.569 -0.78,4.956 -2.113,6.944 H 80.556 V 72.223 H 8.334 V 13.889 h 25.724 c -1.333,-1.988 -2.112,-4.375 -2.112,-6.944 0,-0.469 0.031,-0.933 0.081,-1.389 H 0 V 77.778 C 0,87.991 2.694,91.42 6.193,91.569 v 0.012 L 94.445,100 z M 21.962,80.816 73.769,94.528 13.357,88.775 c 4.593,-3.187 8.605,-7.959 8.605,-7.959 z"
         inkscape:connector-curvature="0" />
    </g>
    <g
       id="g101680"
       transform="matrix(0.30345166,0,0,0.30248615,12.294216,944.94098)"
       style="fill:#000000">
      <path
         inkscape:connector-curvature="0"
         id="rect8480-6-1"
         d="m 4.1875,7.6875 c -1.2221131,0 -2.25,1.0278869 -2.25,2.25 l 0,67.0625 c 0,1.222113 1.0278869,2.25 2.25,2.25 l 73.125,0 c 1.222113,0 2.25,-1.027887 2.25,-2.25 l 0,-67.0625 c 0,-1.2221131 -1.027887,-2.25 -2.25,-2.25 l -73.125,0 z m 0.4375,2.71875 72.25,0 0,66.125 -72.25,0 0,-66.125 z"
         style="font-size:medium;font-style:normal;font-variant:normal;font-weight:normal;font-stretch:normal;text-indent:0;text-align:start;text-decoration:none;line-height:normal;letter-spacing:normal;word-spacing:normal;text-transform:none;direction:ltr;block-progression:tb;writing-mode:lr-tb;text-anchor:start;baseline-shift:baseline;color:#000000;fill:#000000;fill-opacity:1;stroke:none;stroke-width:2.7072978;marker:none;visibility:visible;display:inline;overflow:visible;enable-background:accumulate;font-family:Sans;-inkscape-font-specification:Sans" />
      <path
         inkscape:connector-curvature="0"
         id="path8990-1-1"
         d="m 18.625751,11.619365 c -2.091733,0 -3.871424,1.732608 -3.871424,3.935734 0,2.203126 1.779691,3.942164 3.871424,3.942164 2.091732,0 3.871424,-1.739038 3.871424,-3.942164 0,-2.203126 -1.779692,-3.935734 -3.871424,-3.935734 z m 0,2.0579 c 1.122907,0 1.950717,0.866321 1.950717,1.877834 0,1.011513 -0.82781,1.884265 -1.950717,1.884265 -1.122908,0 -1.950718,-0.872752 -1.950718,-1.884265 0,-1.011513 0.82781,-1.877834 1.950718,-1.877834 z"
         style="font-size:medium;font-style:normal;font-variant:normal;font-weight:normal;font-stretch:normal;text-indent:0;text-align:start;text-decoration:none;line-height:normal;letter-spacing:normal;word-spacing:normal;text-transform:none;direction:ltr;block-progression:tb;writing-mode:lr-tb;text-anchor:start;baseline-shift:baseline;color:#000000;fill:#000000;fill-opacity:1;stroke:none;stroke-width:10;marker:none;visibility:visible;display:inline;overflow:visible;enable-background:accumulate;font-family:Sans;-inkscape-font-specification:Sans" />
      <path
         inkscape:connector-curvature="0"
         id="path8999-4-3"
         d="m 27.21875,25.6875 c -0.68648,0 -1.25,0.594284 -1.25,1.28125 l 0,4.59375 c 0,0.686971 0.562983,1.25 1.25,1.25 l 4.59375,0 c 0.687016,0 1.28125,-0.56303 1.28125,-1.25 l 0,-4.59375 c 0,-0.686964 -0.59477,-1.28125 -1.28125,-1.28125 l -4.59375,0 z M 27.25,27 l 4.53125,0 0,4.53125 -4.53125,0 0,-4.53125 z"
         style="font-size:medium;font-style:normal;font-variant:normal;font-weight:normal;font-stretch:normal;text-indent:0;text-align:start;text-decoration:none;line-height:normal;letter-spacing:normal;word-spacing:normal;text-transform:none;direction:ltr;block-progression:tb;writing-mode:lr-tb;text-anchor:start;baseline-shift:baseline;color:#000000;fill:#000000;fill-opacity:1;stroke:none;stroke-width:1.28713417;marker:none;visibility:visible;display:inline;overflow:visible;enable-background:accumulate;font-family:Sans;-inkscape-font-specification:Sans" />
      <path
         inkscape:connector-curvature="0"
         id="path9001-2-8"
         d="m 36.875,25.6875 c -0.68648,0 -1.25,0.594284 -1.25,1.28125 l 0,4.59375 c 0,0.686971 0.562984,1.25 1.25,1.25 l 4.59375,0 c 0.687017,0 1.25,-0.563028 1.25,-1.25 l 0,-4.59375 c 0,-0.686967 -0.563519,-1.28125 -1.25,-1.28125 l -4.59375,0 z M 36.90625,27 l 4.53125,0 0,4.53125 -4.53125,0 0,-4.53125 z"
         style="font-size:medium;font-style:normal;font-variant:normal;font-weight:normal;font-stretch:normal;text-indent:0;text-align:start;text-decoration:none;line-height:normal;letter-spacing:normal;word-spacing:normal;text-transform:none;direction:ltr;block-progression:tb;writing-mode:lr-tb;text-anchor:start;baseline-shift:baseline;color:#000000;fill:#000000;fill-opacity:1;stroke:none;stroke-width:1.28713417;marker:none;visibility:visible;display:inline;overflow:visible;enable-background:accumulate;font-family:Sans;-inkscape-font-specification:Sans" />
      <path
         inkscape:connector-curvature="0"
         id="path9003-3-7"
         d="m 46.53125,25.6875 c -0.68648,0 -1.28125,0.594232 -1.28125,1.28125 l 0,4.59375 c 0,0.687024 0.594233,1.25 1.28125,1.25 l 4.59375,0 c 0.687017,0 1.25,-0.563028 1.25,-1.25 l 0,-4.59375 c 0,-0.686967 -0.56352,-1.28125 -1.25,-1.28125 l -4.59375,0 z M 46.5625,27 l 4.53125,0 0,4.53125 -4.53125,0 0,-4.53125 z"
         style="font-size:medium;font-style:normal;font-variant:normal;font-weight:normal;font-stretch:normal;text-indent:0;text-align:start;text-decoration:none;line-height:normal;letter-spacing:normal;word-spacing:normal;text-transform:none;direction:ltr;block-progression:tb;writing-mode:lr-tb;text-anchor:start;baseline-shift:baseline;color:#000000;fill:#000000;fill-opacity:1;stroke:none;stroke-width:1.28713417;marker:none;visibility:visible;display:inline;overflow:visible;enable-background:accumulate;font-family:Sans;-inkscape-font-specification:Sans" />
      <path
         inkscape:connector-curvature="0"
         id="path9005-2-4"
         d="m 56.15625,25.6875 c -0.68648,0 -1.25,0.594232 -1.25,1.28125 l 0,4.59375 c 0,0.687024 0.562984,1.25 1.25,1.25 l 4.59375,0 c 0.687016,0 1.28125,-0.563031 1.28125,-1.25 l 0,-4.59375 c 0,-0.686963 -0.594771,-1.28125 -1.28125,-1.28125 l -4.59375,0 z M 56.1875,27 l 4.53125,0 0,4.53125 -4.53125,0 0,-4.53125 z"
         style="font-size:medium;font-style:normal;font-variant:normal;font-weight:normal;font-stretch:normal;text-indent:0;text-align:start;text-decoration:none;line-height:normal;letter-spacing:normal;word-spacing:normal;text-transform:none;direction:ltr;block-progression:tb;writing-mode:lr-tb;text-anchor:start;baseline-shift:baseline;color:#000000;fill:#000000;fill-opacity:1;stroke:none;stroke-width:1.28713417;marker:none;visibility:visible;display:inline;overflow:visible;enable-background:accumulate;font-family:Sans;-inkscape-font-specification:Sans" />
      <path
         inkscape:connector-curvature="0"
         id="path9007-2-2"
         d="m 65.8125,25.6875 c -0.68648,0 -1.25,0.594286 -1.25,1.28125 l 0,4.59375 c 0,0.68697 0.562984,1.25 1.25,1.25 l 4.59375,0 c 0.687017,0 1.25,-0.56292 1.25,-1.25 l 0,-4.59375 c 0,-0.687075 -0.56352,-1.28125 -1.25,-1.28125 l -4.59375,0 z M 65.84375,27 l 4.53125,0 0,4.53125 -4.53125,0 0,-4.53125 z"
         style="font-size:medium;font-style:normal;font-variant:normal;font-weight:normal;font-stretch:normal;text-indent:0;text-align:start;text-decoration:none;line-height:normal;letter-spacing:normal;word-spacing:normal;text-transform:none;direction:ltr;block-progression:tb;writing-mode:lr-tb;text-anchor:start;baseline-shift:baseline;color:#000000;fill:#000000;fill-opacity:1;stroke:none;stroke-width:1.28713417;marker:none;visibility:visible;display:inline;overflow:visible;enable-background:accumulate;font-family:Sans;-inkscape-font-specification:Sans" />
      <path
         inkscape:connector-curvature="0"
         id="path9009-1-7"
         d="m 7.9375,35.96875 c -0.6870178,0 -1.25,0.56298 -1.25,1.25 l 0,4.59375 c 0,0.687015 0.5629822,1.25 1.25,1.25 l 4.59375,0 c 0.687017,0 1.25,-0.563039 1.25,-1.25 l 0,-4.59375 c 0,-0.686966 -0.562983,-1.25 -1.25,-1.25 l -4.59375,0 z m 0.03125,1.28125 4.53125,0 0,4.53125 -4.53125,0 0,-4.53125 z"
         style="font-size:medium;font-style:normal;font-variant:normal;font-weight:normal;font-stretch:normal;text-indent:0;text-align:start;text-decoration:none;line-height:normal;letter-spacing:normal;word-spacing:normal;text-transform:none;direction:ltr;block-progression:tb;writing-mode:lr-tb;text-anchor:start;baseline-shift:baseline;color:#000000;fill:#000000;fill-opacity:1;stroke:none;stroke-width:1.28713417;marker:none;visibility:visible;display:inline;overflow:visible;enable-background:accumulate;font-family:Sans;-inkscape-font-specification:Sans" />
      <path
         inkscape:connector-curvature="0"
         id="path9011-6-7"
         d="m 17.59375,35.96875 c -0.687017,0 -1.28125,0.563034 -1.28125,1.25 l 0,4.59375 c 0,0.686961 0.594233,1.25 1.28125,1.25 l 4.59375,0 c 0.687017,0 1.25,-0.562931 1.25,-1.25 l 0,-4.59375 c 0,-0.687074 -0.562983,-1.25 -1.25,-1.25 l -4.59375,0 z M 17.625,37.25 l 4.53125,0 0,4.53125 -4.53125,0 0,-4.53125 z"
         style="font-size:medium;font-style:normal;font-variant:normal;font-weight:normal;font-stretch:normal;text-indent:0;text-align:start;text-decoration:none;line-height:normal;letter-spacing:normal;word-spacing:normal;text-transform:none;direction:ltr;block-progression:tb;writing-mode:lr-tb;text-anchor:start;baseline-shift:baseline;color:#000000;fill:#000000;fill-opacity:1;stroke:none;stroke-width:1.28713417;marker:none;visibility:visible;display:inline;overflow:visible;enable-background:accumulate;font-family:Sans;-inkscape-font-specification:Sans" />
      <path
         inkscape:connector-curvature="0"
         id="path9013-8-9"
         d="m 27.21875,35.96875 c -0.687018,0 -1.25,0.563034 -1.25,1.25 l 0,4.59375 c 0,0.686961 0.562982,1.25 1.25,1.25 l 4.59375,0 c 0.687017,0 1.28125,-0.56304 1.28125,-1.25 l 0,-4.59375 c 0,-0.686964 -0.594233,-1.25 -1.28125,-1.25 l -4.59375,0 z M 27.25,37.25 l 4.53125,0 0,4.53125 -4.53125,0 0,-4.53125 z"
         style="font-size:medium;font-style:normal;font-variant:normal;font-weight:normal;font-stretch:normal;text-indent:0;text-align:start;text-decoration:none;line-height:normal;letter-spacing:normal;word-spacing:normal;text-transform:none;direction:ltr;block-progression:tb;writing-mode:lr-tb;text-anchor:start;baseline-shift:baseline;color:#000000;fill:#000000;fill-opacity:1;stroke:none;stroke-width:1.28713417;marker:none;visibility:visible;display:inline;overflow:visible;enable-background:accumulate;font-family:Sans;-inkscape-font-specification:Sans" />
      <path
         inkscape:connector-curvature="0"
         id="path9015-5-3"
         d="m 36.875,35.96875 c -0.687017,0 -1.25,0.563034 -1.25,1.25 l 0,4.59375 c 0,0.686961 0.562983,1.25 1.25,1.25 l 4.59375,0 c 0.687018,0 1.25,-0.563038 1.25,-1.25 l 0,-4.59375 c 0,-0.686967 -0.562982,-1.25 -1.25,-1.25 l -4.59375,0 z m 0.03125,1.28125 4.53125,0 0,4.53125 -4.53125,0 0,-4.53125 z"
         style="font-size:medium;font-style:normal;font-variant:normal;font-weight:normal;font-stretch:normal;text-indent:0;text-align:start;text-decoration:none;line-height:normal;letter-spacing:normal;word-spacing:normal;text-transform:none;direction:ltr;block-progression:tb;writing-mode:lr-tb;text-anchor:start;baseline-shift:baseline;color:#000000;fill:#000000;fill-opacity:1;stroke:none;stroke-width:1.28713417;marker:none;visibility:visible;display:inline;overflow:visible;enable-background:accumulate;font-family:Sans;-inkscape-font-specification:Sans" />
      <path
         inkscape:connector-curvature="0"
         id="path9017-7-1"
         d="m 46.53125,35.96875 c -0.687018,0 -1.28125,0.562982 -1.28125,1.25 l 0,4.59375 c 0,0.687014 0.594232,1.25 1.28125,1.25 l 4.59375,0 c 0.687017,0 1.25,-0.563038 1.25,-1.25 l 0,-4.59375 c 0,-0.686967 -0.562983,-1.25 -1.25,-1.25 l -4.59375,0 z m 0.03125,1.28125 4.53125,0 0,4.53125 -4.53125,0 0,-4.53125 z"
         style="font-size:medium;font-style:normal;font-variant:normal;font-weight:normal;font-stretch:normal;text-indent:0;text-align:start;text-decoration:none;line-height:normal;letter-spacing:normal;word-spacing:normal;text-transform:none;direction:ltr;block-progression:tb;writing-mode:lr-tb;text-anchor:start;baseline-shift:baseline;color:#000000;fill:#000000;fill-opacity:1;stroke:none;stroke-width:1.28713417;marker:none;visibility:visible;display:inline;overflow:visible;enable-background:accumulate;font-family:Sans;-inkscape-font-specification:Sans" />
      <path
         inkscape:connector-curvature="0"
         id="path9019-6-9"
         d="m 56.15625,35.96875 c -0.687017,0 -1.25,0.562982 -1.25,1.25 l 0,4.59375 c 0,0.687014 0.562983,1.25 1.25,1.25 l 4.59375,0 c 0.687017,0 1.28125,-0.563041 1.28125,-1.25 l 0,-4.59375 c 0,-0.686963 -0.594233,-1.25 -1.28125,-1.25 l -4.59375,0 z m 0.03125,1.28125 4.53125,0 0,4.53125 -4.53125,0 0,-4.53125 z"
         style="font-size:medium;font-style:normal;font-variant:normal;font-weight:normal;font-stretch:normal;text-indent:0;text-align:start;text-decoration:none;line-height:normal;letter-spacing:normal;word-spacing:normal;text-transform:none;direction:ltr;block-progression:tb;writing-mode:lr-tb;text-anchor:start;baseline-shift:baseline;color:#000000;fill:#000000;fill-opacity:1;stroke:none;stroke-width:1.28713417;marker:none;visibility:visible;display:inline;overflow:visible;enable-background:accumulate;font-family:Sans;-inkscape-font-specification:Sans" />
      <path
         inkscape:connector-curvature="0"
         id="path9021-1-8"
         d="m 65.8125,36.125 c -0.686479,0 -1.25,0.563036 -1.25,1.25 l 0,4.59375 c 0,0.68696 0.562984,1.25 1.25,1.25 l 4.59375,0 c 0.687017,0 1.25,-0.56293 1.25,-1.25 l 0,-4.59375 c 0,-0.687075 -0.563521,-1.25 -1.25,-1.25 l -4.59375,0 z m 0.03125,1.28125 4.53125,0 0,4.53125 -4.53125,0 0,-4.53125 z"
         style="font-size:medium;font-style:normal;font-variant:normal;font-weight:normal;font-stretch:normal;text-indent:0;text-align:start;text-decoration:none;line-height:normal;letter-spacing:normal;word-spacing:normal;text-transform:none;direction:ltr;block-progression:tb;writing-mode:lr-tb;text-anchor:start;baseline-shift:baseline;color:#000000;fill:#000000;fill-opacity:1;stroke:none;stroke-width:1.28713417;marker:none;visibility:visible;display:inline;overflow:visible;enable-background:accumulate;font-family:Sans;-inkscape-font-specification:Sans" />
      <path
         inkscape:connector-curvature="0"
         id="path9023-8-6"
         d="m 7.9375,46.21875 c -0.6864802,0 -1.25,0.562985 -1.25,1.25 l 0,4.59375 c 0,0.68702 0.5624445,1.25 1.25,1.25 l 4.59375,0 c 0.687555,0 1.25,-0.563034 1.25,-1.25 l 0,-4.59375 c 0,-0.686961 -0.56352,-1.25 -1.25,-1.25 l -4.59375,0 z M 7.96875,47.5 l 4.53125,0 0,4.53125 -4.53125,0 0,-4.53125 z"
         style="font-size:medium;font-style:normal;font-variant:normal;font-weight:normal;font-stretch:normal;text-indent:0;text-align:start;text-decoration:none;line-height:normal;letter-spacing:normal;word-spacing:normal;text-transform:none;direction:ltr;block-progression:tb;writing-mode:lr-tb;text-anchor:start;baseline-shift:baseline;color:#000000;fill:#000000;fill-opacity:1;stroke:none;stroke-width:1.28713417;marker:none;visibility:visible;display:inline;overflow:visible;enable-background:accumulate;font-family:Sans;-inkscape-font-specification:Sans" />
      <path
         inkscape:connector-curvature="0"
         id="path9025-9-5"
         d="m 17.59375,46.21875 c -0.686479,0 -1.28125,0.563039 -1.28125,1.25 l 0,4.59375 c 0,0.686966 0.593696,1.25 1.28125,1.25 l 4.59375,0 c 0.687555,0 1.25,-0.562926 1.25,-1.25 l 0,-4.59375 c 0,-0.687069 -0.56352,-1.25 -1.25,-1.25 l -4.59375,0 z M 17.625,47.5 l 4.53125,0 0,4.53125 -4.53125,0 0,-4.53125 z"
         style="font-size:medium;font-style:normal;font-variant:normal;font-weight:normal;font-stretch:normal;text-indent:0;text-align:start;text-decoration:none;line-height:normal;letter-spacing:normal;word-spacing:normal;text-transform:none;direction:ltr;block-progression:tb;writing-mode:lr-tb;text-anchor:start;baseline-shift:baseline;color:#000000;fill:#000000;fill-opacity:1;stroke:none;stroke-width:1.28713417;marker:none;visibility:visible;display:inline;overflow:visible;enable-background:accumulate;font-family:Sans;-inkscape-font-specification:Sans" />
      <path
         inkscape:connector-curvature="0"
         id="path9027-2-0"
         d="m 27.21875,46.21875 c -0.68648,0 -1.25,0.563039 -1.25,1.25 l 0,4.59375 c 0,0.686966 0.562445,1.25 1.25,1.25 l 4.59375,0 c 0.687555,0 1.28125,-0.563036 1.28125,-1.25 l 0,-4.59375 c 0,-0.68696 -0.59477,-1.25 -1.28125,-1.25 l -4.59375,0 z M 27.25,47.5 l 4.53125,0 0,4.53125 -4.53125,0 0,-4.53125 z"
         style="font-size:medium;font-style:normal;font-variant:normal;font-weight:normal;font-stretch:normal;text-indent:0;text-align:start;text-decoration:none;line-height:normal;letter-spacing:normal;word-spacing:normal;text-transform:none;direction:ltr;block-progression:tb;writing-mode:lr-tb;text-anchor:start;baseline-shift:baseline;color:#000000;fill:#000000;fill-opacity:1;stroke:none;stroke-width:1.28713417;marker:none;visibility:visible;display:inline;overflow:visible;enable-background:accumulate;font-family:Sans;-inkscape-font-specification:Sans" />
      <path
         inkscape:connector-curvature="0"
         id="path9029-7-2"
         d="m 36.875,46.21875 c -0.68648,0 -1.25,0.563039 -1.25,1.25 l 0,4.59375 c 0,0.686966 0.562445,1.25 1.25,1.25 l 4.59375,0 c 0.687556,0 1.25,-0.563033 1.25,-1.25 l 0,-4.59375 c 0,-0.686962 -0.563519,-1.25 -1.25,-1.25 l -4.59375,0 z m 0.03125,1.28125 4.53125,0 0,4.53125 -4.53125,0 0,-4.53125 z"
         style="font-size:medium;font-style:normal;font-variant:normal;font-weight:normal;font-stretch:normal;text-indent:0;text-align:start;text-decoration:none;line-height:normal;letter-spacing:normal;word-spacing:normal;text-transform:none;direction:ltr;block-progression:tb;writing-mode:lr-tb;text-anchor:start;baseline-shift:baseline;color:#000000;fill:#000000;fill-opacity:1;stroke:none;stroke-width:1.28713417;marker:none;visibility:visible;display:inline;overflow:visible;enable-background:accumulate;font-family:Sans;-inkscape-font-specification:Sans" />
      <path
         inkscape:connector-curvature="0"
         id="path9031-9-8"
         d="m 46.53125,46.21875 c -0.68648,0 -1.28125,0.562986 -1.28125,1.25 l 0,4.59375 c 0,0.687018 0.593695,1.25 1.28125,1.25 l 4.59375,0 c 0.687555,0 1.25,-0.563033 1.25,-1.25 l 0,-4.59375 c 0,-0.686962 -0.56352,-1.25 -1.25,-1.25 l -4.59375,0 z M 46.5625,47.5 l 4.53125,0 0,4.53125 -4.53125,0 0,-4.53125 z"
         style="font-size:medium;font-style:normal;font-variant:normal;font-weight:normal;font-stretch:normal;text-indent:0;text-align:start;text-decoration:none;line-height:normal;letter-spacing:normal;word-spacing:normal;text-transform:none;direction:ltr;block-progression:tb;writing-mode:lr-tb;text-anchor:start;baseline-shift:baseline;color:#000000;fill:#000000;fill-opacity:1;stroke:none;stroke-width:1.28713417;marker:none;visibility:visible;display:inline;overflow:visible;enable-background:accumulate;font-family:Sans;-inkscape-font-specification:Sans" />
      <path
         inkscape:connector-curvature="0"
         id="path9033-5-6"
         d="m 56.15625,46.21875 c -0.68648,0 -1.25,0.562986 -1.25,1.25 l 0,4.59375 c 0,0.687018 0.562445,1.25 1.25,1.25 l 4.59375,0 c 0.687554,0 1.28125,-0.563037 1.28125,-1.25 l 0,-4.59375 c 0,-0.686959 -0.594771,-1.25 -1.28125,-1.25 l -4.59375,0 z M 56.1875,47.5 l 4.53125,0 0,4.53125 -4.53125,0 0,-4.53125 z"
         style="font-size:medium;font-style:normal;font-variant:normal;font-weight:normal;font-stretch:normal;text-indent:0;text-align:start;text-decoration:none;line-height:normal;letter-spacing:normal;word-spacing:normal;text-transform:none;direction:ltr;block-progression:tb;writing-mode:lr-tb;text-anchor:start;baseline-shift:baseline;color:#000000;fill:#000000;fill-opacity:1;stroke:none;stroke-width:1.28713417;marker:none;visibility:visible;display:inline;overflow:visible;enable-background:accumulate;font-family:Sans;-inkscape-font-specification:Sans" />
      <path
         inkscape:connector-curvature="0"
         id="path9035-4-0"
         d="m 65.8125,46.21875 c -0.68648,0 -1.25,0.56304 -1.25,1.25 l 0,4.59375 c 0,0.686964 0.562445,1.25 1.25,1.25 l 4.59375,0 c 0.687555,0 1.25,-0.562925 1.25,-1.25 l 0,-4.59375 c 0,-0.68707 -0.56352,-1.25 -1.25,-1.25 l -4.59375,0 z m 0.03125,1.28125 4.53125,0 0,4.53125 -4.53125,0 0,-4.53125 z"
         style="font-size:medium;font-style:normal;font-variant:normal;font-weight:normal;font-stretch:normal;text-indent:0;text-align:start;text-decoration:none;line-height:normal;letter-spacing:normal;word-spacing:normal;text-transform:none;direction:ltr;block-progression:tb;writing-mode:lr-tb;text-anchor:start;baseline-shift:baseline;color:#000000;fill:#000000;fill-opacity:1;stroke:none;stroke-width:1.28713417;marker:none;visibility:visible;display:inline;overflow:visible;enable-background:accumulate;font-family:Sans;-inkscape-font-specification:Sans" />
      <path
         inkscape:connector-curvature="0"
         id="path9037-3-2"
         d="m 7.9375,56.46875 c -0.6870204,0 -1.25,0.562975 -1.25,1.25 l 0,4.59375 c 0,0.68702 0.5629809,1.28125 1.25,1.28125 l 4.59375,0 c 0.687019,0 1.25,-0.594284 1.25,-1.28125 l 0,-4.59375 c 0,-0.686971 -0.56298,-1.25 -1.25,-1.25 l -4.59375,0 z m 0.03125,1.28125 4.53125,0 0,4.53125 -4.53125,0 0,-4.53125 z"
         style="font-size:medium;font-style:normal;font-variant:normal;font-weight:normal;font-stretch:normal;text-indent:0;text-align:start;text-decoration:none;line-height:normal;letter-spacing:normal;word-spacing:normal;text-transform:none;direction:ltr;block-progression:tb;writing-mode:lr-tb;text-anchor:start;baseline-shift:baseline;color:#000000;fill:#000000;fill-opacity:1;stroke:none;stroke-width:1.28713417;marker:none;visibility:visible;display:inline;overflow:visible;enable-background:accumulate;font-family:Sans;-inkscape-font-specification:Sans" />
      <path
         inkscape:connector-curvature="0"
         id="path9039-1-4"
         d="m 17.59375,56.46875 c -0.687019,0 -1.28125,0.563029 -1.28125,1.25 l 0,4.59375 c 0,0.686966 0.594232,1.28125 1.28125,1.28125 l 4.59375,0 c 0.687019,0 1.25,-0.594176 1.25,-1.28125 l 0,-4.59375 c 0,-0.687079 -0.56298,-1.25 -1.25,-1.25 l -4.59375,0 z M 17.625,57.75 l 4.53125,0 0,4.53125 -4.53125,0 0,-4.53125 z"
         style="font-size:medium;font-style:normal;font-variant:normal;font-weight:normal;font-stretch:normal;text-indent:0;text-align:start;text-decoration:none;line-height:normal;letter-spacing:normal;word-spacing:normal;text-transform:none;direction:ltr;block-progression:tb;writing-mode:lr-tb;text-anchor:start;baseline-shift:baseline;color:#000000;fill:#000000;fill-opacity:1;stroke:none;stroke-width:1.28713417;marker:none;visibility:visible;display:inline;overflow:visible;enable-background:accumulate;font-family:Sans;-inkscape-font-specification:Sans" />
      <path
         inkscape:connector-curvature="0"
         id="path9041-8"
         d="m 27.21875,56.46875 c -0.68702,0 -1.25,0.563029 -1.25,1.25 l 0,4.59375 c 0,0.686966 0.562981,1.28125 1.25,1.28125 l 4.59375,0 c 0.687019,0 1.28125,-0.594286 1.28125,-1.28125 l 0,-4.59375 c 0,-0.68697 -0.59423,-1.25 -1.28125,-1.25 l -4.59375,0 z M 27.25,57.75 l 4.53125,0 0,4.53125 -4.53125,0 0,-4.53125 z"
         style="font-size:medium;font-style:normal;font-variant:normal;font-weight:normal;font-stretch:normal;text-indent:0;text-align:start;text-decoration:none;line-height:normal;letter-spacing:normal;word-spacing:normal;text-transform:none;direction:ltr;block-progression:tb;writing-mode:lr-tb;text-anchor:start;baseline-shift:baseline;color:#000000;fill:#000000;fill-opacity:1;stroke:none;stroke-width:1.28713417;marker:none;visibility:visible;display:inline;overflow:visible;enable-background:accumulate;font-family:Sans;-inkscape-font-specification:Sans" />
      <path
         inkscape:connector-curvature="0"
         id="path9043-6"
         d="m 36.875,56.46875 c -0.68702,0 -1.25,0.563029 -1.25,1.25 l 0,4.59375 c 0,0.686966 0.562981,1.28125 1.25,1.28125 l 4.59375,0 c 0.68702,0 1.25,-0.594283 1.25,-1.28125 l 0,-4.59375 c 0,-0.686972 -0.562979,-1.25 -1.25,-1.25 l -4.59375,0 z m 0.03125,1.28125 4.53125,0 0,4.53125 -4.53125,0 0,-4.53125 z"
         style="font-size:medium;font-style:normal;font-variant:normal;font-weight:normal;font-stretch:normal;text-indent:0;text-align:start;text-decoration:none;line-height:normal;letter-spacing:normal;word-spacing:normal;text-transform:none;direction:ltr;block-progression:tb;writing-mode:lr-tb;text-anchor:start;baseline-shift:baseline;color:#000000;fill:#000000;fill-opacity:1;stroke:none;stroke-width:1.28713417;marker:none;visibility:visible;display:inline;overflow:visible;enable-background:accumulate;font-family:Sans;-inkscape-font-specification:Sans" />
      <path
         inkscape:connector-curvature="0"
         id="path9045-5"
         d="m 46.53125,56.46875 c -0.68702,0 -1.28125,0.562976 -1.28125,1.25 l 0,4.59375 c 0,0.687018 0.594231,1.28125 1.28125,1.28125 l 4.59375,0 c 0.687019,0 1.25,-0.594283 1.25,-1.28125 l 0,-4.59375 c 0,-0.686972 -0.56298,-1.25 -1.25,-1.25 l -4.59375,0 z m 0.03125,1.28125 4.53125,0 0,4.53125 -4.53125,0 0,-4.53125 z"
         style="font-size:medium;font-style:normal;font-variant:normal;font-weight:normal;font-stretch:normal;text-indent:0;text-align:start;text-decoration:none;line-height:normal;letter-spacing:normal;word-spacing:normal;text-transform:none;direction:ltr;block-progression:tb;writing-mode:lr-tb;text-anchor:start;baseline-shift:baseline;color:#000000;fill:#000000;fill-opacity:1;stroke:none;stroke-width:1.28713417;marker:none;visibility:visible;display:inline;overflow:visible;enable-background:accumulate;font-family:Sans;-inkscape-font-specification:Sans" />
      <path
         inkscape:connector-curvature="0"
         id="path9047-0"
         d="m 56.15625,56.46875 c -0.68702,0 -1.25,0.562976 -1.25,1.25 l 0,4.59375 c 0,0.687018 0.562981,1.28125 1.25,1.28125 l 4.59375,0 c 0.687018,0 1.28125,-0.594287 1.28125,-1.28125 l 0,-4.59375 c 0,-0.686969 -0.594231,-1.25 -1.28125,-1.25 l -4.59375,0 z m 0.03125,1.28125 4.53125,0 0,4.53125 -4.53125,0 0,-4.53125 z"
         style="font-size:medium;font-style:normal;font-variant:normal;font-weight:normal;font-stretch:normal;text-indent:0;text-align:start;text-decoration:none;line-height:normal;letter-spacing:normal;word-spacing:normal;text-transform:none;direction:ltr;block-progression:tb;writing-mode:lr-tb;text-anchor:start;baseline-shift:baseline;color:#000000;fill:#000000;fill-opacity:1;stroke:none;stroke-width:1.28713417;marker:none;visibility:visible;display:inline;overflow:visible;enable-background:accumulate;font-family:Sans;-inkscape-font-specification:Sans" />
      <path
         inkscape:connector-curvature="0"
         id="path9049-9"
         d="m 65.8125,56.46875 c -0.68702,0 -1.25,0.56303 -1.25,1.25 l 0,4.59375 c 0,0.686964 0.562981,1.28125 1.25,1.28125 l 4.59375,0 c 0.687019,0 1.25,-0.594175 1.25,-1.28125 l 0,-4.59375 c 0,-0.687081 -0.56298,-1.25 -1.25,-1.25 l -4.59375,0 z m 0.03125,1.28125 4.53125,0 0,4.53125 -4.53125,0 0,-4.53125 z"
         style="font-size:medium;font-style:normal;font-variant:normal;font-weight:normal;font-stretch:normal;text-indent:0;text-align:start;text-decoration:none;line-height:normal;letter-spacing:normal;word-spacing:normal;text-transform:none;direction:ltr;block-progression:tb;writing-mode:lr-tb;text-anchor:start;baseline-shift:baseline;color:#000000;fill:#000000;fill-opacity:1;stroke:none;stroke-width:1.28713417;marker:none;visibility:visible;display:inline;overflow:visible;enable-background:accumulate;font-family:Sans;-inkscape-font-specification:Sans" />
      <path
         inkscape:connector-curvature="0"
         id="path9051-0"
         d="m 7.9375,66.71875 c -0.6870191,0 -1.25,0.594238 -1.25,1.28125 l 0,4.59375 c 0,0.687015 0.5635198,1.25 1.25,1.25 l 4.59375,0 c 0.68648,0 1.25,-0.563039 1.25,-1.25 l 0,-4.59375 c 0,-0.686958 -0.562981,-1.28125 -1.25,-1.28125 l -4.59375,0 z m 0.03125,1.3125 4.53125,0 0,4.53125 -4.53125,0 0,-4.53125 z"
         style="font-size:medium;font-style:normal;font-variant:normal;font-weight:normal;font-stretch:normal;text-indent:0;text-align:start;text-decoration:none;line-height:normal;letter-spacing:normal;word-spacing:normal;text-transform:none;direction:ltr;block-progression:tb;writing-mode:lr-tb;text-anchor:start;baseline-shift:baseline;color:#000000;fill:#000000;fill-opacity:1;stroke:none;stroke-width:1.28713417;marker:none;visibility:visible;display:inline;overflow:visible;enable-background:accumulate;font-family:Sans;-inkscape-font-specification:Sans" />
      <path
         inkscape:connector-curvature="0"
         id="path9053-0"
         d="m 17.59375,66.71875 c -0.687018,0 -1.28125,0.594292 -1.28125,1.28125 l 0,4.59375 c 0,0.686961 0.594771,1.25 1.28125,1.25 l 4.59375,0 c 0.68648,0 1.25,-0.562931 1.25,-1.25 l 0,-4.59375 c 0,-0.687066 -0.562981,-1.28125 -1.25,-1.28125 l -4.59375,0 z m 0.03125,1.3125 4.53125,0 0,4.53125 -4.53125,0 0,-4.53125 z"
         style="font-size:medium;font-style:normal;font-variant:normal;font-weight:normal;font-stretch:normal;text-indent:0;text-align:start;text-decoration:none;line-height:normal;letter-spacing:normal;word-spacing:normal;text-transform:none;direction:ltr;block-progression:tb;writing-mode:lr-tb;text-anchor:start;baseline-shift:baseline;color:#000000;fill:#000000;fill-opacity:1;stroke:none;stroke-width:1.28713417;marker:none;visibility:visible;display:inline;overflow:visible;enable-background:accumulate;font-family:Sans;-inkscape-font-specification:Sans" />
      <path
         inkscape:connector-curvature="0"
         id="path9055-6"
         d="m 27.21875,66.71875 c -0.687019,0 -1.25,0.594292 -1.25,1.28125 l 0,4.59375 c 0,0.686961 0.56352,1.25 1.25,1.25 l 4.59375,0 c 0.68648,0 1.28125,-0.56304 1.28125,-1.25 l 0,-4.59375 c 0,-0.686957 -0.594231,-1.28125 -1.28125,-1.28125 l -4.59375,0 z m 0.03125,1.3125 4.53125,0 0,4.53125 -4.53125,0 0,-4.53125 z"
         style="font-size:medium;font-style:normal;font-variant:normal;font-weight:normal;font-stretch:normal;text-indent:0;text-align:start;text-decoration:none;line-height:normal;letter-spacing:normal;word-spacing:normal;text-transform:none;direction:ltr;block-progression:tb;writing-mode:lr-tb;text-anchor:start;baseline-shift:baseline;color:#000000;fill:#000000;fill-opacity:1;stroke:none;stroke-width:1.28713417;marker:none;visibility:visible;display:inline;overflow:visible;enable-background:accumulate;font-family:Sans;-inkscape-font-specification:Sans" />
      <path
         inkscape:connector-curvature="0"
         id="path9057-1"
         d="m 36.875,66.71875 c -0.687019,0 -1.25,0.594292 -1.25,1.28125 l 0,4.59375 c 0,0.686961 0.56352,1.25 1.25,1.25 l 4.59375,0 c 0.686481,0 1.25,-0.563038 1.25,-1.25 l 0,-4.59375 c 0,-0.686959 -0.56298,-1.28125 -1.25,-1.28125 l -4.59375,0 z m 0.03125,1.3125 4.53125,0 0,4.53125 -4.53125,0 0,-4.53125 z"
         style="font-size:medium;font-style:normal;font-variant:normal;font-weight:normal;font-stretch:normal;text-indent:0;text-align:start;text-decoration:none;line-height:normal;letter-spacing:normal;word-spacing:normal;text-transform:none;direction:ltr;block-progression:tb;writing-mode:lr-tb;text-anchor:start;baseline-shift:baseline;color:#000000;fill:#000000;fill-opacity:1;stroke:none;stroke-width:1.28713417;marker:none;visibility:visible;display:inline;overflow:visible;enable-background:accumulate;font-family:Sans;-inkscape-font-specification:Sans" />
      <path
         inkscape:connector-curvature="0"
         id="path9065-2-3"
         d="m 62.77376,11.721478 c -2.091733,0 -3.871424,1.732608 -3.871424,3.935734 0,2.203126 1.779691,3.942164 3.871424,3.942164 2.091732,0 3.871424,-1.739038 3.871424,-3.942164 0,-2.203126 -1.779692,-3.935734 -3.871424,-3.935734 z m 0,2.0579 c 1.122907,0 1.950717,0.866321 1.950717,1.877834 0,1.011513 -0.82781,1.884265 -1.950717,1.884265 -1.122908,0 -1.950718,-0.872752 -1.950718,-1.884265 0,-1.011513 0.82781,-1.877834 1.950718,-1.877834 z"
         style="font-size:medium;font-style:normal;font-variant:normal;font-weight:normal;font-stretch:normal;text-indent:0;text-align:start;text-decoration:none;line-height:normal;letter-spacing:normal;word-spacing:normal;text-transform:none;direction:ltr;block-progression:tb;writing-mode:lr-tb;text-anchor:start;baseline-shift:baseline;color:#000000;fill:#000000;fill-opacity:1;stroke:none;stroke-width:10;marker:none;visibility:visible;display:inline;overflow:visible;enable-background:accumulate;font-family:Sans;-inkscape-font-specification:Sans" />
      <path
         inkscape:connector-curvature="0"
         id="path9067-3-8"
         d="m 7.9375,20.75 0,1.8125 65.0625,0 0,-1.8125 -65.0625,0 z"
         style="font-size:medium;font-style:normal;font-variant:normal;font-weight:normal;font-stretch:normal;text-indent:0;text-align:start;text-decoration:none;line-height:normal;letter-spacing:normal;word-spacing:normal;text-transform:none;direction:ltr;block-progression:tb;writing-mode:lr-tb;text-anchor:start;baseline-shift:baseline;color:#000000;fill:#000000;fill-opacity:1;stroke:none;stroke-width:1.8220396;marker:none;visibility:visible;display:inline;overflow:visible;enable-background:accumulate;font-family:Sans;-inkscape-font-specification:Sans" />
      <path
         id="rect9072-3-9"
         d="m 18.201467,0.83819145 0.813722,0 c 0.495606,0 0.894596,0.39898965 0.894596,0.89459555 l 0,13.828289 c 0,0.495606 -0.39899,0.894596 -0.894596,0.894596 l -0.813722,0 c -0.495606,0 -0.894596,-0.39899 -0.894596,-0.894596 l 0,-13.828289 c 0,-0.4956059 0.39899,-0.89459555 0.894596,-0.89459555 z"
         style="fill:#000000;stroke:none"
         inkscape:connector-curvature="0" />
      <path
         id="rect9074-4-3"
         d="m 62.432353,0.83819145 0.813722,0 c 0.495606,0 0.894596,0.39898965 0.894596,0.89459555 l 0,13.828289 c 0,0.495606 -0.39899,0.894596 -0.894596,0.894596 l -0.813722,0 c -0.495606,0 -0.894595,-0.39899 -0.894595,-0.894596 l 0,-13.828289 c 0,-0.4956059 0.398989,-0.89459555 0.894595,-0.89459555 z"
         style="fill:#000000;stroke:none"
         inkscape:connector-curvature="0" />
    </g>
    <g
       transform="matrix(0.23439458,0,0,0.23364881,52.889571,723.07008)"
       id="layer1-8"
       inkscape:label="Capa 1">
      <path
         inkscape:connector-curvature="0"
         d="M 94.34394,986.31279 5.6563561,986.19358 m 88.6875819,32.24092 -88.6875819,-0.1192 m 60.4526229,-60.23744 0,88.56834 m -32.121691,-88.56837 0,88.56837 m -30.2448202,-90.54157 0,92.25077 92.5150612,0.2643 0,-92.25074 z m -1.876988,-1.87699 0,95.99396 96.2690402,0.2751 0,-95.994 z"
         style="fill:none;stroke:#000000;stroke-width:3.73095989;stroke-linecap:butt;stroke-linejoin:miter;stroke-miterlimit:4;stroke-opacity:1;stroke-dasharray:none"
         id="path3799-7-4" />
      <path
         transform="matrix(0.09937151,0,0,0.09937152,-2.2379569,951.33384)"
         d="m 947.52311,826.25378 c 0,60.25232 -48.84416,109.09648 -109.09647,109.09648 -60.25232,0 -109.09648,-48.84416 -109.09648,-109.09648 0,-60.25231 48.84416,-109.09647 109.09648,-109.09647 60.25231,0 109.09647,48.84416 109.09647,109.09647 z"
         sodipodi:ry="109.09647"
         sodipodi:rx="109.09647"
         sodipodi:cy="826.25378"
         sodipodi:cx="838.42664"
         id="path3856"
         style="stroke-width:39.95399857;stroke-miterlimit:4;stroke-dasharray:none"
         sodipodi:type="arc" />
      <path
         transform="matrix(0.09937151,0,0,0.09937152,-2.2379569,920.49699)"
         d="m 947.52311,826.25378 c 0,60.25232 -48.84416,109.09648 -109.09647,109.09648 -60.25232,0 -109.09648,-48.84416 -109.09648,-109.09648 0,-60.25231 48.84416,-109.09647 109.09648,-109.09647 60.25231,0 109.09647,48.84416 109.09647,109.09647 z"
         sodipodi:ry="109.09647"
         sodipodi:rx="109.09647"
         sodipodi:cy="826.25378"
         sodipodi:cx="838.42664"
         id="path3856-0"
         style="stroke-width:39.95399857;stroke-miterlimit:4;stroke-dasharray:none"
         sodipodi:type="arc" />
      <path
         transform="matrix(0.09937151,0,0,0.09937152,-34.038463,950.85202)"
         d="m 947.52311,826.25378 c 0,60.25232 -48.84416,109.09648 -109.09647,109.09648 -60.25232,0 -109.09648,-48.84416 -109.09648,-109.09648 0,-60.25231 48.84416,-109.09647 109.09648,-109.09647 60.25231,0 109.09647,48.84416 109.09647,109.09647 z"
         sodipodi:ry="109.09647"
         sodipodi:rx="109.09647"
         sodipodi:cy="826.25378"
         sodipodi:cx="838.42664"
         id="path3856-9"
         style="stroke-width:39.95399857;stroke-miterlimit:4;stroke-dasharray:none"
         sodipodi:type="arc" />
      <path
         transform="matrix(0.09937151,0,0,0.09937152,-64.875317,950.85202)"
         d="m 947.52311,826.25378 c 0,60.25232 -48.84416,109.09648 -109.09647,109.09648 -60.25232,0 -109.09648,-48.84416 -109.09648,-109.09648 0,-60.25231 48.84416,-109.09647 109.09648,-109.09647 60.25231,0 109.09647,48.84416 109.09647,109.09647 z"
         sodipodi:ry="109.09647"
         sodipodi:rx="109.09647"
         sodipodi:cy="826.25378"
         sodipodi:cx="838.42664"
         id="path3856-9-4"
         style="stroke-width:39.95399857;stroke-miterlimit:4;stroke-dasharray:none"
         sodipodi:type="arc" />
      <path
         transform="matrix(0.09937151,0,0,0.09937152,-34.038463,889.17831)"
         d="m 947.52311,826.25378 c 0,60.25232 -48.84416,109.09648 -109.09647,109.09648 -60.25232,0 -109.09648,-48.84416 -109.09648,-109.09648 0,-60.25231 48.84416,-109.09647 109.09648,-109.09647 60.25231,0 109.09647,48.84416 109.09647,109.09647 z"
         sodipodi:ry="109.09647"
         sodipodi:rx="109.09647"
         sodipodi:cy="826.25378"
         sodipodi:cx="838.42664"
         id="path3856-0-8"
         style="stroke-width:39.95399857;stroke-miterlimit:4;stroke-dasharray:none"
         sodipodi:type="arc" />
    </g>
    <path
       style="fill:none;fill-opacity:0.87058824000000001;stroke:#000000;stroke-width:0.53704220000000003;stroke-miterlimit:4;stroke-opacity:0.94117647000000004;stroke-dashoffset:0"
       d="m 11.705963,993.64529 17.115369,0 c 0.735027,0 1.326772,0.79141 1.326772,1.77466 l 0,4.21112 1.156222,0.77323 -1.156222,0.5947 0,0.4543 c 0,0.9236 -0.591745,1.7744 -1.326772,1.7744 l -17.115369,0 c -0.735034,0 -1.326772,-0.7912 -1.326772,-1.7744 l 0,-6.03335 c 0,-0.98325 0.591738,-1.77466 1.326772,-1.77466 z"
       id="rect2987-8"
       inkscape:connector-curvature="0"
       sodipodi:nodetypes="ssscccssssss" />
    <path
       style="fill:#000000;stroke:#000000;stroke-width:0.55364889;stroke-linecap:butt;stroke-linejoin:miter;stroke-miterlimit:4;stroke-opacity:1;stroke-dasharray:none"
       d="m 11.336172,995.34941 17.875438,0"
       id="path3029-37-5"
       inkscape:connector-curvature="0"
       sodipodi:nodetypes="cc" />
    <path
       style="fill:#000000;stroke:#000000;stroke-width:0.55364889;stroke-linecap:butt;stroke-linejoin:miter;stroke-miterlimit:4;stroke-opacity:1;stroke-dasharray:none"
       d="m 11.336172,1001.7507 17.875438,0"
       id="path3029-37-25"
       inkscape:connector-curvature="0"
       sodipodi:nodetypes="cc" />
    <path
       style="fill:#000000;stroke:#000000;stroke-width:0.55364889;stroke-linecap:butt;stroke-linejoin:miter;stroke-miterlimit:4;stroke-opacity:1;stroke-dasharray:none"
       d="m 11.336172,1000.1503 17.875438,0"
       id="path3029-37-3"
       inkscape:connector-curvature="0"
       sodipodi:nodetypes="cc" />
    <path
       style="fill:#000000;stroke:#000000;stroke-width:0.55364889;stroke-linecap:butt;stroke-linejoin:miter;stroke-miterlimit:4;stroke-opacity:1;stroke-dasharray:none"
       d="m 11.336172,998.55004 17.875438,0"
       id="path3029-37-6"
       inkscape:connector-curvature="0"
       sodipodi:nodetypes="cc" />
    <path
       style="fill:#000000;stroke:#000000;stroke-width:0.55364889;stroke-linecap:butt;stroke-linejoin:miter;stroke-miterlimit:4;stroke-opacity:1;stroke-dasharray:none"
       d="m 11.336172,996.94968 17.875438,0"
       id="path3029-37-59"
       inkscape:connector-curvature="0"
       sodipodi:nodetypes="cc" />
    <path
       style="fill:#000000;stroke:none"
       d="m 31.78829,994.97857 c 0.0054,0 0.0071,0 0.01075,0.014 0.660165,0.73158 2.307411,2.62883 2.516686,2.87084 0.13679,-0.0815 0.277293,-0.15391 0.402038,-0.25236 0.04561,-0.0904 0.09876,-0.18304 0.128408,-0.27885 0.02187,-0.0957 0.03386,-0.20168 0.101807,-0.27923 0.144443,0.18521 0.249592,0.41432 0.465549,0.53079 0.162957,0.12376 0.31513,0.25342 0.482377,0.36866 0.04336,-0.0387 0.08132,-0.0962 0.145668,-0.0941 0.432082,0.0857 0.816769,0.32273 1.239162,0.43744 0.119859,0.0373 0.172074,0.16086 0.286294,0.20318 0.116683,0.0332 0.190605,0.13514 0.287955,0.19685 0.37224,0.19934 0.667765,0.51941 0.912629,0.8567 -0.515447,3.70391 -1.248315,5.21641 -2.684886,3.87721 -0.05388,-0.5953 -0.185494,-0.979 -0.302969,-1.5639 -0.08094,-0.4068 -0.108814,-0.8482 -0.384086,-1.1817 -0.262396,0.1292 -0.544036,0.1905 -0.833653,0.217 -0.330623,0.1135 -0.673656,0.2075 -1.013397,0.2889 -0.160938,0.029 -0.218434,0.1947 -0.347569,0.2736 -0.06417,0.042 -0.135493,0.083 -0.215939,0.083 -0.171704,0.041 -0.328854,-0.055 -0.485188,-0.1084 -0.119806,-0.064 -0.210883,-0.193 -0.240393,-0.3241 -0.03071,-0.141 -0.09035,-0.2697 -0.102638,-0.4139 -0.0031,-0.1492 0.103405,-0.2658 0.187999,-0.376 0.264808,-0.4086 0.714616,-0.62993 1.02381,-0.99927 0.105474,-0.0933 0.119153,-0.24435 0.153487,-0.37203 0.05481,-0.2737 0.160297,-0.54783 0.355634,-0.75101 -0.309123,-0.43979 -1.60824,-2.29008 -2.166662,-3.10393 -0.02296,-0.0331 0.03982,-0.11608 0.07707,-0.11353 z"
       id="path3032"
       inkscape:connector-curvature="0"
       sodipodi:nodetypes="cccccccccccccccccccccccccccccc" />
    <path
       d="m 16.12902,987.33003 c -0.168843,-0.43983 -1.297448,-1.88825 -1.531163,-1.96586 -0.23341,-0.0774 -0.726645,-0.0517 -0.726645,-0.0517 -0.220593,-2.47037 -0.765433,-2.74184 -1.141586,-3.01349 -0.3763,-0.27146 -0.337521,0.80211 -0.337521,0.80211 -0.129764,-0.45271 -0.791526,-1.18999 -1.245686,-1.07357 -0.454154,0.11633 -0.207467,1.60388 -0.142591,2.01748 0.06518,0.41407 0.648793,1.00876 0.869093,1.33214 0.220586,0.32317 0.103945,0.60775 0.103945,0.60775 -0.181668,0.25884 -0.155714,0.90979 -0.155714,0.90979 -0.453853,-0.0739 -0.89504,0.44837 -0.89504,0.44837 0.05752,3.35149 1.258165,3.65278 3.386266,2.8971 0,0 0.05202,0.0637 0.272346,-0.20717 0.220743,-0.27158 -0.02581,-0.69828 -0.09054,-0.7891 -0.0647,-0.0904 -0.194631,-0.65963 -0.194631,-0.65963 0,0 0.869084,-0.0523 1.076852,-0.15537 0.207164,-0.1033 0.921138,-0.65913 0.752599,-1.09883 z"
       id="path3"
       inkscape:connector-curvature="0"
       sodipodi:nodetypes="cccccsccccccccccc" />
    <path
       style="fill:none;fill-opacity:0.87058824000000001;stroke:#000000;stroke-width:0.53704220000000003;stroke-miterlimit:4;stroke-opacity:0.94117647000000004;stroke-dashoffset:0"
       d="m 36.835475,980.82277 -17.11536,0 c -0.735035,0 -1.326772,0.79143 -1.326772,1.77453 l 0,4.21112 -1.156222,0.77317 1.156222,0.59495 0,0.45413 c 0,0.92355 0.591737,1.77466 1.326772,1.77466 l 17.11536,0 c 0.735035,0 1.326771,-0.79153 1.326771,-1.77466 l 0,-6.03337 c 0,-0.9831 -0.591736,-1.77453 -1.326771,-1.77453 z"
       id="rect2987-8-2"
       inkscape:connector-curvature="0"
       sodipodi:nodetypes="ssscccssssss" />
    <path
       style="fill:none;stroke:#000000;stroke-width:0.55364889;stroke-linecap:butt;stroke-linejoin:miter;stroke-miterlimit:4;stroke-opacity:1;stroke-dasharray:none"
       d="m 37.26741,982.52678 -17.875437,0"
       id="path3029-37-5-8"
       inkscape:connector-curvature="0"
       sodipodi:nodetypes="cc" />
    <path
       style="fill:none;stroke:#000000;stroke-width:0.55364889;stroke-linecap:butt;stroke-linejoin:miter;stroke-miterlimit:4;stroke-opacity:1;stroke-dasharray:none"
       d="m 37.26741,988.92801 -17.875437,0"
       id="path3029-37-25-2"
       inkscape:connector-curvature="0"
       sodipodi:nodetypes="cc" />
    <path
       style="fill:none;stroke:#000000;stroke-width:0.55364889;stroke-linecap:butt;stroke-linejoin:miter;stroke-miterlimit:4;stroke-opacity:1;stroke-dasharray:none"
       d="m 37.26741,987.32761 -17.875437,0"
       id="path3029-37-3-6"
       inkscape:connector-curvature="0"
       sodipodi:nodetypes="cc" />
    <path
       style="fill:none;stroke:#000000;stroke-width:0.55364889;stroke-linecap:butt;stroke-linejoin:miter;stroke-miterlimit:4;stroke-opacity:1;stroke-dasharray:none"
       d="m 37.26741,985.72734 -17.875437,0"
       id="path3029-37-6-9"
       inkscape:connector-curvature="0"
       sodipodi:nodetypes="cc" />
    <path
       style="fill:none;stroke:#000000;stroke-width:0.55364889;stroke-linecap:butt;stroke-linejoin:miter;stroke-miterlimit:4;stroke-opacity:1;stroke-dasharray:none"
       d="m 37.26741,984.12708 -17.875437,0"
       id="path3029-37-59-2"
       inkscape:connector-curvature="0"
       sodipodi:nodetypes="cc" />
  </g>
</svg>
