<svg xmlns:dc="http://purl.org/dc/elements/1.1/" xmlns:cc="http://creativecommons.org/ns#" xmlns:rdf="http://www.w3.org/1999/02/22-rdf-syntax-ns#" xmlns:svg="http://www.w3.org/2000/svg" xmlns="http://www.w3.org/2000/svg" xmlns:sodipodi="http://sodipodi.sourceforge.net/DTD/sodipodi-0.dtd" xmlns:inkscape="http://www.inkscape.org/namespaces/inkscape" width="100" height="100" viewBox="0 0 80 80" version="1.1" id="svg2" inkscape:version="0.48.2 r9819" sodipodi:docname="deadline.svg">
  <metadata id="metadata10">
    <rdf:RDF>
      <cc:Work rdf:about="">
        <dc:format>image/svg+xml</dc:format>
        <dc:type rdf:resource="http://purl.org/dc/dcmitype/StillImage"/>
        <dc:title/>
      </cc:Work>
    </rdf:RDF>
  </metadata>
  <defs id="defs8"/>
  <sodipodi:namedview pagecolor="#ffffff" bordercolor="#666666" borderopacity="1" objecttolerance="10" gridtolerance="10" guidetolerance="10" inkscape:pageopacity="0" inkscape:pageshadow="2" inkscape:window-width="1366" inkscape:window-height="706" id="namedview6" showgrid="true" inkscape:zoom="2.585" inkscape:cx="50" inkscape:cy="50" inkscape:window-x="-8" inkscape:window-y="-8" inkscape:window-maximized="1" inkscape:current-layer="svg2" inkscape:snap-grids="false">
    <inkscape:grid type="xygrid" id="grid3807"/>
  </sodipodi:namedview>
  <path style="font-size:medium;font-style:normal;font-variant:normal;font-weight:normal;font-stretch:normal;text-indent:0;text-align:start;text-decoration:none;line-height:normal;letter-spacing:normal;word-spacing:normal;text-transform:none;direction:ltr;block-progression:tb;writing-mode:lr-tb;text-anchor:start;baseline-shift:baseline;color:#000000;fill:#000000;fill-opacity:1;stroke:none;stroke-width:2.7072978;marker:none;visibility:visible;display:inline;overflow:visible;enable-background:accumulate;font-family:Sans;-inkscape-font-specification:Sans" d="m 4.1875,7.6875 c -1.2221131,0 -2.25,1.0278869 -2.25,2.25 l 0,67.0625 c 0,1.222113 1.0278869,2.25 2.25,2.25 l 73.125,0 c 1.222113,0 2.25,-1.027887 2.25,-2.25 l 0,-67.0625 c 0,-1.2221131 -1.027887,-2.25 -2.25,-2.25 l -73.125,0 z m 0.4375,2.71875 72.25,0 0,66.125 -72.25,0 0,-66.125 z" id="rect8480-6-1" inkscape:connector-curvature="0"/>
  <path style="font-size:medium;font-style:normal;font-variant:normal;font-weight:normal;font-stretch:normal;text-indent:0;text-align:start;text-decoration:none;line-height:normal;letter-spacing:normal;word-spacing:normal;text-transform:none;direction:ltr;block-progression:tb;writing-mode:lr-tb;text-anchor:start;baseline-shift:baseline;color:#000000;fill:#000000;fill-opacity:1;stroke:none;stroke-width:10;marker:none;visibility:visible;display:inline;overflow:visible;enable-background:accumulate;font-family:Sans;-inkscape-font-specification:Sans" d="m 18.625751,11.619365 c -2.091733,0 -3.871424,1.732608 -3.871424,3.935734 0,2.203126 1.779691,3.942164 3.871424,3.942164 2.091732,0 3.871424,-1.739038 3.871424,-3.942164 0,-2.203126 -1.779692,-3.935734 -3.871424,-3.935734 z m 0,2.0579 c 1.122907,0 1.950717,0.866321 1.950717,1.877834 0,1.011513 -0.82781,1.884265 -1.950717,1.884265 -1.122908,0 -1.950718,-0.872752 -1.950718,-1.884265 0,-1.011513 0.82781,-1.877834 1.950718,-1.877834 z" id="path8990-1-1" inkscape:connector-curvature="0"/>
  <path style="font-size:medium;font-style:normal;font-variant:normal;font-weight:normal;font-stretch:normal;text-indent:0;text-align:start;text-decoration:none;line-height:normal;letter-spacing:normal;word-spacing:normal;text-transform:none;direction:ltr;block-progression:tb;writing-mode:lr-tb;text-anchor:start;baseline-shift:baseline;color:#000000;fill:#000000;fill-opacity:1;stroke:none;stroke-width:1.28713417;marker:none;visibility:visible;display:inline;overflow:visible;enable-background:accumulate;font-family:Sans;-inkscape-font-specification:Sans" d="m 27.21875,25.6875 c -0.68648,0 -1.25,0.594284 -1.25,1.28125 l 0,4.59375 c 0,0.686971 0.562983,1.25 1.25,1.25 l 4.59375,0 c 0.687016,0 1.28125,-0.56303 1.28125,-1.25 l 0,-4.59375 c 0,-0.686964 -0.59477,-1.28125 -1.28125,-1.28125 l -4.59375,0 z M 27.25,27 l 4.53125,0 0,4.53125 -4.53125,0 0,-4.53125 z" id="path8999-4-3" inkscape:connector-curvature="0"/>
  <path style="font-size:medium;font-style:normal;font-variant:normal;font-weight:normal;font-stretch:normal;text-indent:0;text-align:start;text-decoration:none;line-height:normal;letter-spacing:normal;word-spacing:normal;text-transform:none;direction:ltr;block-progression:tb;writing-mode:lr-tb;text-anchor:start;baseline-shift:baseline;color:#000000;fill:#000000;fill-opacity:1;stroke:none;stroke-width:1.28713417;marker:none;visibility:visible;display:inline;overflow:visible;enable-background:accumulate;font-family:Sans;-inkscape-font-specification:Sans" d="m 36.875,25.6875 c -0.68648,0 -1.25,0.594284 -1.25,1.28125 l 0,4.59375 c 0,0.686971 0.562984,1.25 1.25,1.25 l 4.59375,0 c 0.687017,0 1.25,-0.563028 1.25,-1.25 l 0,-4.59375 c 0,-0.686967 -0.563519,-1.28125 -1.25,-1.28125 l -4.59375,0 z M 36.90625,27 l 4.53125,0 0,4.53125 -4.53125,0 0,-4.53125 z" id="path9001-2-8" inkscape:connector-curvature="0"/>
  <path style="font-size:medium;font-style:normal;font-variant:normal;font-weight:normal;font-stretch:normal;text-indent:0;text-align:start;text-decoration:none;line-height:normal;letter-spacing:normal;word-spacing:normal;text-transform:none;direction:ltr;block-progression:tb;writing-mode:lr-tb;text-anchor:start;baseline-shift:baseline;color:#000000;fill:#000000;fill-opacity:1;stroke:none;stroke-width:1.28713417;marker:none;visibility:visible;display:inline;overflow:visible;enable-background:accumulate;font-family:Sans;-inkscape-font-specification:Sans" d="m 46.53125,25.6875 c -0.68648,0 -1.28125,0.594232 -1.28125,1.28125 l 0,4.59375 c 0,0.687024 0.594233,1.25 1.28125,1.25 l 4.59375,0 c 0.687017,0 1.25,-0.563028 1.25,-1.25 l 0,-4.59375 c 0,-0.686967 -0.56352,-1.28125 -1.25,-1.28125 l -4.59375,0 z M 46.5625,27 l 4.53125,0 0,4.53125 -4.53125,0 0,-4.53125 z" id="path9003-3-7" inkscape:connector-curvature="0"/>
  <path style="font-size:medium;font-style:normal;font-variant:normal;font-weight:normal;font-stretch:normal;text-indent:0;text-align:start;text-decoration:none;line-height:normal;letter-spacing:normal;word-spacing:normal;text-transform:none;direction:ltr;block-progression:tb;writing-mode:lr-tb;text-anchor:start;baseline-shift:baseline;color:#000000;fill:#000000;fill-opacity:1;stroke:none;stroke-width:1.28713417;marker:none;visibility:visible;display:inline;overflow:visible;enable-background:accumulate;font-family:Sans;-inkscape-font-specification:Sans" d="m 56.15625,25.6875 c -0.68648,0 -1.25,0.594232 -1.25,1.28125 l 0,4.59375 c 0,0.687024 0.562984,1.25 1.25,1.25 l 4.59375,0 c 0.687016,0 1.28125,-0.563031 1.28125,-1.25 l 0,-4.59375 c 0,-0.686963 -0.594771,-1.28125 -1.28125,-1.28125 l -4.59375,0 z M 56.1875,27 l 4.53125,0 0,4.53125 -4.53125,0 0,-4.53125 z" id="path9005-2-4" inkscape:connector-curvature="0"/>
  <path style="font-size:medium;font-style:normal;font-variant:normal;font-weight:normal;font-stretch:normal;text-indent:0;text-align:start;text-decoration:none;line-height:normal;letter-spacing:normal;word-spacing:normal;text-transform:none;direction:ltr;block-progression:tb;writing-mode:lr-tb;text-anchor:start;baseline-shift:baseline;color:#000000;fill:#000000;fill-opacity:1;stroke:none;stroke-width:1.28713417;marker:none;visibility:visible;display:inline;overflow:visible;enable-background:accumulate;font-family:Sans;-inkscape-font-specification:Sans" d="m 65.8125,25.6875 c -0.68648,0 -1.25,0.594286 -1.25,1.28125 l 0,4.59375 c 0,0.68697 0.562984,1.25 1.25,1.25 l 4.59375,0 c 0.687017,0 1.25,-0.56292 1.25,-1.25 l 0,-4.59375 c 0,-0.687075 -0.56352,-1.28125 -1.25,-1.28125 l -4.59375,0 z M 65.84375,27 l 4.53125,0 0,4.53125 -4.53125,0 0,-4.53125 z" id="path9007-2-2" inkscape:connector-curvature="0"/>
  <path style="font-size:medium;font-style:normal;font-variant:normal;font-weight:normal;font-stretch:normal;text-indent:0;text-align:start;text-decoration:none;line-height:normal;letter-spacing:normal;word-spacing:normal;text-transform:none;direction:ltr;block-progression:tb;writing-mode:lr-tb;text-anchor:start;baseline-shift:baseline;color:#000000;fill:#000000;fill-opacity:1;stroke:none;stroke-width:1.28713417;marker:none;visibility:visible;display:inline;overflow:visible;enable-background:accumulate;font-family:Sans;-inkscape-font-specification:Sans" d="m 7.9375,35.96875 c -0.6870178,0 -1.25,0.56298 -1.25,1.25 l 0,4.59375 c 0,0.687015 0.5629822,1.25 1.25,1.25 l 4.59375,0 c 0.687017,0 1.25,-0.563039 1.25,-1.25 l 0,-4.59375 c 0,-0.686966 -0.562983,-1.25 -1.25,-1.25 l -4.59375,0 z m 0.03125,1.28125 4.53125,0 0,4.53125 -4.53125,0 0,-4.53125 z" id="path9009-1-7" inkscape:connector-curvature="0"/>
  <path style="font-size:medium;font-style:normal;font-variant:normal;font-weight:normal;font-stretch:normal;text-indent:0;text-align:start;text-decoration:none;line-height:normal;letter-spacing:normal;word-spacing:normal;text-transform:none;direction:ltr;block-progression:tb;writing-mode:lr-tb;text-anchor:start;baseline-shift:baseline;color:#000000;fill:#000000;fill-opacity:1;stroke:none;stroke-width:1.28713417;marker:none;visibility:visible;display:inline;overflow:visible;enable-background:accumulate;font-family:Sans;-inkscape-font-specification:Sans" d="m 17.59375,35.96875 c -0.687017,0 -1.28125,0.563034 -1.28125,1.25 l 0,4.59375 c 0,0.686961 0.594233,1.25 1.28125,1.25 l 4.59375,0 c 0.687017,0 1.25,-0.562931 1.25,-1.25 l 0,-4.59375 c 0,-0.687074 -0.562983,-1.25 -1.25,-1.25 l -4.59375,0 z M 17.625,37.25 l 4.53125,0 0,4.53125 -4.53125,0 0,-4.53125 z" id="path9011-6-7" inkscape:connector-curvature="0"/>
  <path style="font-size:medium;font-style:normal;font-variant:normal;font-weight:normal;font-stretch:normal;text-indent:0;text-align:start;text-decoration:none;line-height:normal;letter-spacing:normal;word-spacing:normal;text-transform:none;direction:ltr;block-progression:tb;writing-mode:lr-tb;text-anchor:start;baseline-shift:baseline;color:#000000;fill:#000000;fill-opacity:1;stroke:none;stroke-width:1.28713417;marker:none;visibility:visible;display:inline;overflow:visible;enable-background:accumulate;font-family:Sans;-inkscape-font-specification:Sans" d="m 27.21875,35.96875 c -0.687018,0 -1.25,0.563034 -1.25,1.25 l 0,4.59375 c 0,0.686961 0.562982,1.25 1.25,1.25 l 4.59375,0 c 0.687017,0 1.28125,-0.56304 1.28125,-1.25 l 0,-4.59375 c 0,-0.686964 -0.594233,-1.25 -1.28125,-1.25 l -4.59375,0 z M 27.25,37.25 l 4.53125,0 0,4.53125 -4.53125,0 0,-4.53125 z" id="path9013-8-9" inkscape:connector-curvature="0"/>
  <path style="font-size:medium;font-style:normal;font-variant:normal;font-weight:normal;font-stretch:normal;text-indent:0;text-align:start;text-decoration:none;line-height:normal;letter-spacing:normal;word-spacing:normal;text-transform:none;direction:ltr;block-progression:tb;writing-mode:lr-tb;text-anchor:start;baseline-shift:baseline;color:#000000;fill:#000000;fill-opacity:1;stroke:none;stroke-width:1.28713417;marker:none;visibility:visible;display:inline;overflow:visible;enable-background:accumulate;font-family:Sans;-inkscape-font-specification:Sans" d="m 36.875,35.96875 c -0.687017,0 -1.25,0.563034 -1.25,1.25 l 0,4.59375 c 0,0.686961 0.562983,1.25 1.25,1.25 l 4.59375,0 c 0.687018,0 1.25,-0.563038 1.25,-1.25 l 0,-4.59375 c 0,-0.686967 -0.562982,-1.25 -1.25,-1.25 l -4.59375,0 z m 0.03125,1.28125 4.53125,0 0,4.53125 -4.53125,0 0,-4.53125 z" id="path9015-5-3" inkscape:connector-curvature="0"/>
  <path style="font-size:medium;font-style:normal;font-variant:normal;font-weight:normal;font-stretch:normal;text-indent:0;text-align:start;text-decoration:none;line-height:normal;letter-spacing:normal;word-spacing:normal;text-transform:none;direction:ltr;block-progression:tb;writing-mode:lr-tb;text-anchor:start;baseline-shift:baseline;color:#000000;fill:#000000;fill-opacity:1;stroke:none;stroke-width:1.28713417;marker:none;visibility:visible;display:inline;overflow:visible;enable-background:accumulate;font-family:Sans;-inkscape-font-specification:Sans" d="m 46.53125,35.96875 c -0.687018,0 -1.28125,0.562982 -1.28125,1.25 l 0,4.59375 c 0,0.687014 0.594232,1.25 1.28125,1.25 l 4.59375,0 c 0.687017,0 1.25,-0.563038 1.25,-1.25 l 0,-4.59375 c 0,-0.686967 -0.562983,-1.25 -1.25,-1.25 l -4.59375,0 z m 0.03125,1.28125 4.53125,0 0,4.53125 -4.53125,0 0,-4.53125 z" id="path9017-7-1" inkscape:connector-curvature="0"/>
  <path style="font-size:medium;font-style:normal;font-variant:normal;font-weight:normal;font-stretch:normal;text-indent:0;text-align:start;text-decoration:none;line-height:normal;letter-spacing:normal;word-spacing:normal;text-transform:none;direction:ltr;block-progression:tb;writing-mode:lr-tb;text-anchor:start;baseline-shift:baseline;color:#000000;fill:#000000;fill-opacity:1;stroke:none;stroke-width:1.28713417;marker:none;visibility:visible;display:inline;overflow:visible;enable-background:accumulate;font-family:Sans;-inkscape-font-specification:Sans" d="m 56.15625,35.96875 c -0.687017,0 -1.25,0.562982 -1.25,1.25 l 0,4.59375 c 0,0.687014 0.562983,1.25 1.25,1.25 l 4.59375,0 c 0.687017,0 1.28125,-0.563041 1.28125,-1.25 l 0,-4.59375 c 0,-0.686963 -0.594233,-1.25 -1.28125,-1.25 l -4.59375,0 z m 0.03125,1.28125 4.53125,0 0,4.53125 -4.53125,0 0,-4.53125 z" id="path9019-6-9" inkscape:connector-curvature="0"/>
  <path style="font-size:medium;font-style:normal;font-variant:normal;font-weight:normal;font-stretch:normal;text-indent:0;text-align:start;text-decoration:none;line-height:normal;letter-spacing:normal;word-spacing:normal;text-transform:none;direction:ltr;block-progression:tb;writing-mode:lr-tb;text-anchor:start;baseline-shift:baseline;color:#000000;fill:#000000;fill-opacity:1;stroke:none;stroke-width:1.28713417;marker:none;visibility:visible;display:inline;overflow:visible;enable-background:accumulate;font-family:Sans;-inkscape-font-specification:Sans" d="m 65.8125,36.125 c -0.686479,0 -1.25,0.563036 -1.25,1.25 l 0,4.59375 c 0,0.68696 0.562984,1.25 1.25,1.25 l 4.59375,0 c 0.687017,0 1.25,-0.56293 1.25,-1.25 l 0,-4.59375 c 0,-0.687075 -0.563521,-1.25 -1.25,-1.25 l -4.59375,0 z m 0.03125,1.28125 4.53125,0 0,4.53125 -4.53125,0 0,-4.53125 z" id="path9021-1-8" inkscape:connector-curvature="0"/>
  <path style="font-size:medium;font-style:normal;font-variant:normal;font-weight:normal;font-stretch:normal;text-indent:0;text-align:start;text-decoration:none;line-height:normal;letter-spacing:normal;word-spacing:normal;text-transform:none;direction:ltr;block-progression:tb;writing-mode:lr-tb;text-anchor:start;baseline-shift:baseline;color:#000000;fill:#000000;fill-opacity:1;stroke:none;stroke-width:1.28713417;marker:none;visibility:visible;display:inline;overflow:visible;enable-background:accumulate;font-family:Sans;-inkscape-font-specification:Sans" d="m 7.9375,46.21875 c -0.6864802,0 -1.25,0.562985 -1.25,1.25 l 0,4.59375 c 0,0.68702 0.5624445,1.25 1.25,1.25 l 4.59375,0 c 0.687555,0 1.25,-0.563034 1.25,-1.25 l 0,-4.59375 c 0,-0.686961 -0.56352,-1.25 -1.25,-1.25 l -4.59375,0 z M 7.96875,47.5 l 4.53125,0 0,4.53125 -4.53125,0 0,-4.53125 z" id="path9023-8-6" inkscape:connector-curvature="0"/>
  <path style="font-size:medium;font-style:normal;font-variant:normal;font-weight:normal;font-stretch:normal;text-indent:0;text-align:start;text-decoration:none;line-height:normal;letter-spacing:normal;word-spacing:normal;text-transform:none;direction:ltr;block-progression:tb;writing-mode:lr-tb;text-anchor:start;baseline-shift:baseline;color:#000000;fill:#000000;fill-opacity:1;stroke:none;stroke-width:1.28713417;marker:none;visibility:visible;display:inline;overflow:visible;enable-background:accumulate;font-family:Sans;-inkscape-font-specification:Sans" d="m 17.59375,46.21875 c -0.686479,0 -1.28125,0.563039 -1.28125,1.25 l 0,4.59375 c 0,0.686966 0.593696,1.25 1.28125,1.25 l 4.59375,0 c 0.687555,0 1.25,-0.562926 1.25,-1.25 l 0,-4.59375 c 0,-0.687069 -0.56352,-1.25 -1.25,-1.25 l -4.59375,0 z M 17.625,47.5 l 4.53125,0 0,4.53125 -4.53125,0 0,-4.53125 z" id="path9025-9-5" inkscape:connector-curvature="0"/>
  <path style="font-size:medium;font-style:normal;font-variant:normal;font-weight:normal;font-stretch:normal;text-indent:0;text-align:start;text-decoration:none;line-height:normal;letter-spacing:normal;word-spacing:normal;text-transform:none;direction:ltr;block-progression:tb;writing-mode:lr-tb;text-anchor:start;baseline-shift:baseline;color:#000000;fill:#000000;fill-opacity:1;stroke:none;stroke-width:1.28713417;marker:none;visibility:visible;display:inline;overflow:visible;enable-background:accumulate;font-family:Sans;-inkscape-font-specification:Sans" d="m 27.21875,46.21875 c -0.68648,0 -1.25,0.563039 -1.25,1.25 l 0,4.59375 c 0,0.686966 0.562445,1.25 1.25,1.25 l 4.59375,0 c 0.687555,0 1.28125,-0.563036 1.28125,-1.25 l 0,-4.59375 c 0,-0.68696 -0.59477,-1.25 -1.28125,-1.25 l -4.59375,0 z M 27.25,47.5 l 4.53125,0 0,4.53125 -4.53125,0 0,-4.53125 z" id="path9027-2-0" inkscape:connector-curvature="0"/>
  <path style="font-size:medium;font-style:normal;font-variant:normal;font-weight:normal;font-stretch:normal;text-indent:0;text-align:start;text-decoration:none;line-height:normal;letter-spacing:normal;word-spacing:normal;text-transform:none;direction:ltr;block-progression:tb;writing-mode:lr-tb;text-anchor:start;baseline-shift:baseline;color:#000000;fill:#000000;fill-opacity:1;stroke:none;stroke-width:1.28713417;marker:none;visibility:visible;display:inline;overflow:visible;enable-background:accumulate;font-family:Sans;-inkscape-font-specification:Sans" d="m 36.875,46.21875 c -0.68648,0 -1.25,0.563039 -1.25,1.25 l 0,4.59375 c 0,0.686966 0.562445,1.25 1.25,1.25 l 4.59375,0 c 0.687556,0 1.25,-0.563033 1.25,-1.25 l 0,-4.59375 c 0,-0.686962 -0.563519,-1.25 -1.25,-1.25 l -4.59375,0 z m 0.03125,1.28125 4.53125,0 0,4.53125 -4.53125,0 0,-4.53125 z" id="path9029-7-2" inkscape:connector-curvature="0"/>
  <path style="font-size:medium;font-style:normal;font-variant:normal;font-weight:normal;font-stretch:normal;text-indent:0;text-align:start;text-decoration:none;line-height:normal;letter-spacing:normal;word-spacing:normal;text-transform:none;direction:ltr;block-progression:tb;writing-mode:lr-tb;text-anchor:start;baseline-shift:baseline;color:#000000;fill:#000000;fill-opacity:1;stroke:none;stroke-width:1.28713417;marker:none;visibility:visible;display:inline;overflow:visible;enable-background:accumulate;font-family:Sans;-inkscape-font-specification:Sans" d="m 46.53125,46.21875 c -0.68648,0 -1.28125,0.562986 -1.28125,1.25 l 0,4.59375 c 0,0.687018 0.593695,1.25 1.28125,1.25 l 4.59375,0 c 0.687555,0 1.25,-0.563033 1.25,-1.25 l 0,-4.59375 c 0,-0.686962 -0.56352,-1.25 -1.25,-1.25 l -4.59375,0 z M 46.5625,47.5 l 4.53125,0 0,4.53125 -4.53125,0 0,-4.53125 z" id="path9031-9-8" inkscape:connector-curvature="0"/>
  <path style="font-size:medium;font-style:normal;font-variant:normal;font-weight:normal;font-stretch:normal;text-indent:0;text-align:start;text-decoration:none;line-height:normal;letter-spacing:normal;word-spacing:normal;text-transform:none;direction:ltr;block-progression:tb;writing-mode:lr-tb;text-anchor:start;baseline-shift:baseline;color:#000000;fill:#000000;fill-opacity:1;stroke:none;stroke-width:1.28713417;marker:none;visibility:visible;display:inline;overflow:visible;enable-background:accumulate;font-family:Sans;-inkscape-font-specification:Sans" d="m 56.15625,46.21875 c -0.68648,0 -1.25,0.562986 -1.25,1.25 l 0,4.59375 c 0,0.687018 0.562445,1.25 1.25,1.25 l 4.59375,0 c 0.687554,0 1.28125,-0.563037 1.28125,-1.25 l 0,-4.59375 c 0,-0.686959 -0.594771,-1.25 -1.28125,-1.25 l -4.59375,0 z M 56.1875,47.5 l 4.53125,0 0,4.53125 -4.53125,0 0,-4.53125 z" id="path9033-5-6" inkscape:connector-curvature="0"/>
  <path style="font-size:medium;font-style:normal;font-variant:normal;font-weight:normal;font-stretch:normal;text-indent:0;text-align:start;text-decoration:none;line-height:normal;letter-spacing:normal;word-spacing:normal;text-transform:none;direction:ltr;block-progression:tb;writing-mode:lr-tb;text-anchor:start;baseline-shift:baseline;color:#000000;fill:#000000;fill-opacity:1;stroke:none;stroke-width:1.28713417;marker:none;visibility:visible;display:inline;overflow:visible;enable-background:accumulate;font-family:Sans;-inkscape-font-specification:Sans" d="m 65.8125,46.21875 c -0.68648,0 -1.25,0.56304 -1.25,1.25 l 0,4.59375 c 0,0.686964 0.562445,1.25 1.25,1.25 l 4.59375,0 c 0.687555,0 1.25,-0.562925 1.25,-1.25 l 0,-4.59375 c 0,-0.68707 -0.56352,-1.25 -1.25,-1.25 l -4.59375,0 z m 0.03125,1.28125 4.53125,0 0,4.53125 -4.53125,0 0,-4.53125 z" id="path9035-4-0" inkscape:connector-curvature="0"/>
  <path style="font-size:medium;font-style:normal;font-variant:normal;font-weight:normal;font-stretch:normal;text-indent:0;text-align:start;text-decoration:none;line-height:normal;letter-spacing:normal;word-spacing:normal;text-transform:none;direction:ltr;block-progression:tb;writing-mode:lr-tb;text-anchor:start;baseline-shift:baseline;color:#000000;fill:#000000;fill-opacity:1;stroke:none;stroke-width:1.28713417;marker:none;visibility:visible;display:inline;overflow:visible;enable-background:accumulate;font-family:Sans;-inkscape-font-specification:Sans" d="m 7.9375,56.46875 c -0.6870204,0 -1.25,0.562975 -1.25,1.25 l 0,4.59375 c 0,0.68702 0.5629809,1.28125 1.25,1.28125 l 4.59375,0 c 0.687019,0 1.25,-0.594284 1.25,-1.28125 l 0,-4.59375 c 0,-0.686971 -0.56298,-1.25 -1.25,-1.25 l -4.59375,0 z m 0.03125,1.28125 4.53125,0 0,4.53125 -4.53125,0 0,-4.53125 z" id="path9037-3-2" inkscape:connector-curvature="0"/>
  <path style="font-size:medium;font-style:normal;font-variant:normal;font-weight:normal;font-stretch:normal;text-indent:0;text-align:start;text-decoration:none;line-height:normal;letter-spacing:normal;word-spacing:normal;text-transform:none;direction:ltr;block-progression:tb;writing-mode:lr-tb;text-anchor:start;baseline-shift:baseline;color:#000000;fill:#000000;fill-opacity:1;stroke:none;stroke-width:1.28713417;marker:none;visibility:visible;display:inline;overflow:visible;enable-background:accumulate;font-family:Sans;-inkscape-font-specification:Sans" d="m 17.59375,56.46875 c -0.687019,0 -1.28125,0.563029 -1.28125,1.25 l 0,4.59375 c 0,0.686966 0.594232,1.28125 1.28125,1.28125 l 4.59375,0 c 0.687019,0 1.25,-0.594176 1.25,-1.28125 l 0,-4.59375 c 0,-0.687079 -0.56298,-1.25 -1.25,-1.25 l -4.59375,0 z M 17.625,57.75 l 4.53125,0 0,4.53125 -4.53125,0 0,-4.53125 z" id="path9039-1-4" inkscape:connector-curvature="0"/>
  <path style="font-size:medium;font-style:normal;font-variant:normal;font-weight:normal;font-stretch:normal;text-indent:0;text-align:start;text-decoration:none;line-height:normal;letter-spacing:normal;word-spacing:normal;text-transform:none;direction:ltr;block-progression:tb;writing-mode:lr-tb;text-anchor:start;baseline-shift:baseline;color:#000000;fill:#000000;fill-opacity:1;stroke:none;stroke-width:1.28713417;marker:none;visibility:visible;display:inline;overflow:visible;enable-background:accumulate;font-family:Sans;-inkscape-font-specification:Sans" d="m 27.21875,56.46875 c -0.68702,0 -1.25,0.563029 -1.25,1.25 l 0,4.59375 c 0,0.686966 0.562981,1.28125 1.25,1.28125 l 4.59375,0 c 0.687019,0 1.28125,-0.594286 1.28125,-1.28125 l 0,-4.59375 c 0,-0.68697 -0.59423,-1.25 -1.28125,-1.25 l -4.59375,0 z M 27.25,57.75 l 4.53125,0 0,4.53125 -4.53125,0 0,-4.53125 z" id="path9041-8" inkscape:connector-curvature="0"/>
  <path style="font-size:medium;font-style:normal;font-variant:normal;font-weight:normal;font-stretch:normal;text-indent:0;text-align:start;text-decoration:none;line-height:normal;letter-spacing:normal;word-spacing:normal;text-transform:none;direction:ltr;block-progression:tb;writing-mode:lr-tb;text-anchor:start;baseline-shift:baseline;color:#000000;fill:#000000;fill-opacity:1;stroke:none;stroke-width:1.28713417;marker:none;visibility:visible;display:inline;overflow:visible;enable-background:accumulate;font-family:Sans;-inkscape-font-specification:Sans" d="m 36.875,56.46875 c -0.68702,0 -1.25,0.563029 -1.25,1.25 l 0,4.59375 c 0,0.686966 0.562981,1.28125 1.25,1.28125 l 4.59375,0 c 0.68702,0 1.25,-0.594283 1.25,-1.28125 l 0,-4.59375 c 0,-0.686972 -0.562979,-1.25 -1.25,-1.25 l -4.59375,0 z m 0.03125,1.28125 4.53125,0 0,4.53125 -4.53125,0 0,-4.53125 z" id="path9043-6" inkscape:connector-curvature="0"/>
  <path style="font-size:medium;font-style:normal;font-variant:normal;font-weight:normal;font-stretch:normal;text-indent:0;text-align:start;text-decoration:none;line-height:normal;letter-spacing:normal;word-spacing:normal;text-transform:none;direction:ltr;block-progression:tb;writing-mode:lr-tb;text-anchor:start;baseline-shift:baseline;color:#000000;fill:#000000;fill-opacity:1;stroke:none;stroke-width:1.28713417;marker:none;visibility:visible;display:inline;overflow:visible;enable-background:accumulate;font-family:Sans;-inkscape-font-specification:Sans" d="m 46.53125,56.46875 c -0.68702,0 -1.28125,0.562976 -1.28125,1.25 l 0,4.59375 c 0,0.687018 0.594231,1.28125 1.28125,1.28125 l 4.59375,0 c 0.687019,0 1.25,-0.594283 1.25,-1.28125 l 0,-4.59375 c 0,-0.686972 -0.56298,-1.25 -1.25,-1.25 l -4.59375,0 z m 0.03125,1.28125 4.53125,0 0,4.53125 -4.53125,0 0,-4.53125 z" id="path9045-5" inkscape:connector-curvature="0"/>
  <path style="font-size:medium;font-style:normal;font-variant:normal;font-weight:normal;font-stretch:normal;text-indent:0;text-align:start;text-decoration:none;line-height:normal;letter-spacing:normal;word-spacing:normal;text-transform:none;direction:ltr;block-progression:tb;writing-mode:lr-tb;text-anchor:start;baseline-shift:baseline;color:#000000;fill:#000000;fill-opacity:1;stroke:none;stroke-width:1.28713417;marker:none;visibility:visible;display:inline;overflow:visible;enable-background:accumulate;font-family:Sans;-inkscape-font-specification:Sans" d="m 56.15625,56.46875 c -0.68702,0 -1.25,0.562976 -1.25,1.25 l 0,4.59375 c 0,0.687018 0.562981,1.28125 1.25,1.28125 l 4.59375,0 c 0.687018,0 1.28125,-0.594287 1.28125,-1.28125 l 0,-4.59375 c 0,-0.686969 -0.594231,-1.25 -1.28125,-1.25 l -4.59375,0 z m 0.03125,1.28125 4.53125,0 0,4.53125 -4.53125,0 0,-4.53125 z" id="path9047-0" inkscape:connector-curvature="0"/>
  <path style="font-size:medium;font-style:normal;font-variant:normal;font-weight:normal;font-stretch:normal;text-indent:0;text-align:start;text-decoration:none;line-height:normal;letter-spacing:normal;word-spacing:normal;text-transform:none;direction:ltr;block-progression:tb;writing-mode:lr-tb;text-anchor:start;baseline-shift:baseline;color:#000000;fill:#000000;fill-opacity:1;stroke:none;stroke-width:1.28713417;marker:none;visibility:visible;display:inline;overflow:visible;enable-background:accumulate;font-family:Sans;-inkscape-font-specification:Sans" d="m 65.8125,56.46875 c -0.68702,0 -1.25,0.56303 -1.25,1.25 l 0,4.59375 c 0,0.686964 0.562981,1.28125 1.25,1.28125 l 4.59375,0 c 0.687019,0 1.25,-0.594175 1.25,-1.28125 l 0,-4.59375 c 0,-0.687081 -0.56298,-1.25 -1.25,-1.25 l -4.59375,0 z m 0.03125,1.28125 4.53125,0 0,4.53125 -4.53125,0 0,-4.53125 z" id="path9049-9" inkscape:connector-curvature="0"/>
  <path style="font-size:medium;font-style:normal;font-variant:normal;font-weight:normal;font-stretch:normal;text-indent:0;text-align:start;text-decoration:none;line-height:normal;letter-spacing:normal;word-spacing:normal;text-transform:none;direction:ltr;block-progression:tb;writing-mode:lr-tb;text-anchor:start;baseline-shift:baseline;color:#000000;fill:#000000;fill-opacity:1;stroke:none;stroke-width:1.28713417;marker:none;visibility:visible;display:inline;overflow:visible;enable-background:accumulate;font-family:Sans;-inkscape-font-specification:Sans" d="m 7.9375,66.71875 c -0.6870191,0 -1.25,0.594238 -1.25,1.28125 l 0,4.59375 c 0,0.687015 0.5635198,1.25 1.25,1.25 l 4.59375,0 c 0.68648,0 1.25,-0.563039 1.25,-1.25 l 0,-4.59375 c 0,-0.686958 -0.562981,-1.28125 -1.25,-1.28125 l -4.59375,0 z m 0.03125,1.3125 4.53125,0 0,4.53125 -4.53125,0 0,-4.53125 z" id="path9051-0" inkscape:connector-curvature="0"/>
  <path style="font-size:medium;font-style:normal;font-variant:normal;font-weight:normal;font-stretch:normal;text-indent:0;text-align:start;text-decoration:none;line-height:normal;letter-spacing:normal;word-spacing:normal;text-transform:none;direction:ltr;block-progression:tb;writing-mode:lr-tb;text-anchor:start;baseline-shift:baseline;color:#000000;fill:#000000;fill-opacity:1;stroke:none;stroke-width:1.28713417;marker:none;visibility:visible;display:inline;overflow:visible;enable-background:accumulate;font-family:Sans;-inkscape-font-specification:Sans" d="m 17.59375,66.71875 c -0.687018,0 -1.28125,0.594292 -1.28125,1.28125 l 0,4.59375 c 0,0.686961 0.594771,1.25 1.28125,1.25 l 4.59375,0 c 0.68648,0 1.25,-0.562931 1.25,-1.25 l 0,-4.59375 c 0,-0.687066 -0.562981,-1.28125 -1.25,-1.28125 l -4.59375,0 z m 0.03125,1.3125 4.53125,0 0,4.53125 -4.53125,0 0,-4.53125 z" id="path9053-0" inkscape:connector-curvature="0"/>
  <path style="font-size:medium;font-style:normal;font-variant:normal;font-weight:normal;font-stretch:normal;text-indent:0;text-align:start;text-decoration:none;line-height:normal;letter-spacing:normal;word-spacing:normal;text-transform:none;direction:ltr;block-progression:tb;writing-mode:lr-tb;text-anchor:start;baseline-shift:baseline;color:#000000;fill:#000000;fill-opacity:1;stroke:none;stroke-width:1.28713417;marker:none;visibility:visible;display:inline;overflow:visible;enable-background:accumulate;font-family:Sans;-inkscape-font-specification:Sans" d="m 27.21875,66.71875 c -0.687019,0 -1.25,0.594292 -1.25,1.28125 l 0,4.59375 c 0,0.686961 0.56352,1.25 1.25,1.25 l 4.59375,0 c 0.68648,0 1.28125,-0.56304 1.28125,-1.25 l 0,-4.59375 c 0,-0.686957 -0.594231,-1.28125 -1.28125,-1.28125 l -4.59375,0 z m 0.03125,1.3125 4.53125,0 0,4.53125 -4.53125,0 0,-4.53125 z" id="path9055-6" inkscape:connector-curvature="0"/>
  <path style="font-size:medium;font-style:normal;font-variant:normal;font-weight:normal;font-stretch:normal;text-indent:0;text-align:start;text-decoration:none;line-height:normal;letter-spacing:normal;word-spacing:normal;text-transform:none;direction:ltr;block-progression:tb;writing-mode:lr-tb;text-anchor:start;baseline-shift:baseline;color:#000000;fill:#000000;fill-opacity:1;stroke:none;stroke-width:1.28713417;marker:none;visibility:visible;display:inline;overflow:visible;enable-background:accumulate;font-family:Sans;-inkscape-font-specification:Sans" d="m 36.875,66.71875 c -0.687019,0 -1.25,0.594292 -1.25,1.28125 l 0,4.59375 c 0,0.686961 0.56352,1.25 1.25,1.25 l 4.59375,0 c 0.686481,0 1.25,-0.563038 1.25,-1.25 l 0,-4.59375 c 0,-0.686959 -0.56298,-1.28125 -1.25,-1.28125 l -4.59375,0 z m 0.03125,1.3125 4.53125,0 0,4.53125 -4.53125,0 0,-4.53125 z" id="path9057-1" inkscape:connector-curvature="0"/>
  <path style="font-size:medium;font-style:normal;font-variant:normal;font-weight:normal;font-stretch:normal;text-indent:0;text-align:start;text-decoration:none;line-height:normal;letter-spacing:normal;word-spacing:normal;text-transform:none;direction:ltr;block-progression:tb;writing-mode:lr-tb;text-anchor:start;baseline-shift:baseline;color:#000000;fill:#000000;fill-opacity:1;stroke:none;stroke-width:10;marker:none;visibility:visible;display:inline;overflow:visible;enable-background:accumulate;font-family:Sans;-inkscape-font-specification:Sans" d="m 62.77376,11.721478 c -2.091733,0 -3.871424,1.732608 -3.871424,3.935734 0,2.203126 1.779691,3.942164 3.871424,3.942164 2.091732,0 3.871424,-1.739038 3.871424,-3.942164 0,-2.203126 -1.779692,-3.935734 -3.871424,-3.935734 z m 0,2.0579 c 1.122907,0 1.950717,0.866321 1.950717,1.877834 0,1.011513 -0.82781,1.884265 -1.950717,1.884265 -1.122908,0 -1.950718,-0.872752 -1.950718,-1.884265 0,-1.011513 0.82781,-1.877834 1.950718,-1.877834 z" id="path9065-2-3" inkscape:connector-curvature="0"/>
  <path style="font-size:medium;font-style:normal;font-variant:normal;font-weight:normal;font-stretch:normal;text-indent:0;text-align:start;text-decoration:none;line-height:normal;letter-spacing:normal;word-spacing:normal;text-transform:none;direction:ltr;block-progression:tb;writing-mode:lr-tb;text-anchor:start;baseline-shift:baseline;color:#000000;fill:#000000;fill-opacity:1;stroke:none;stroke-width:1.8220396;marker:none;visibility:visible;display:inline;overflow:visible;enable-background:accumulate;font-family:Sans;-inkscape-font-specification:Sans" d="m 7.9375,20.75 0,1.8125 65.0625,0 0,-1.8125 -65.0625,0 z" id="path9067-3-8" inkscape:connector-curvature="0"/>
  <path style="fill:#000000;stroke:none" d="m 18.201467,0.83819145 0.813722,0 c 0.495606,0 0.894596,0.39898965 0.894596,0.89459555 l 0,13.828289 c 0,0.495606 -0.39899,0.894596 -0.894596,0.894596 l -0.813722,0 c -0.495606,0 -0.894596,-0.39899 -0.894596,-0.894596 l 0,-13.828289 c 0,-0.4956059 0.39899,-0.89459555 0.894596,-0.89459555 z" id="rect9072-3-9"/>
  <path style="fill:#000000;stroke:none" d="m 62.432353,0.83819145 0.813722,0 c 0.495606,0 0.894596,0.39898965 0.894596,0.89459555 l 0,13.828289 c 0,0.495606 -0.39899,0.894596 -0.894596,0.894596 l -0.813722,0 c -0.495606,0 -0.894595,-0.39899 -0.894595,-0.894596 l 0,-13.828289 c 0,-0.4956059 0.398989,-0.89459555 0.894595,-0.89459555 z" id="rect9074-4-3"/>
</svg>