<?xml version="1.0" encoding="UTF-8" standalone="no"?>
<!-- Created with Inkscape (http://www.inkscape.org/) -->

<svg
   xmlns:dc="http://purl.org/dc/elements/1.1/"
   xmlns:cc="http://creativecommons.org/ns#"
   xmlns:rdf="http://www.w3.org/1999/02/22-rdf-syntax-ns#"
   xmlns:svg="http://www.w3.org/2000/svg"
   xmlns="http://www.w3.org/2000/svg"
   xmlns:sodipodi="http://sodipodi.sourceforge.net/DTD/sodipodi-0.dtd"
   xmlns:inkscape="http://www.inkscape.org/namespaces/inkscape"
   width="100"
   height="100"
   id="svg2"
   version="1.1"
   inkscape:version="0.48.3.1 r9886"
   sodipodi:docname="chatIconCC-Zero.svg">
  <defs
     id="defs4" />
  <sodipodi:namedview
     id="base"
     pagecolor="#ffffff"
     bordercolor="#666666"
     borderopacity="1.0"
     inkscape:pageopacity="0.0"
     inkscape:pageshadow="2"
     inkscape:zoom="2.5835043"
     inkscape:cx="78.294589"
     inkscape:cy="33.463441"
     inkscape:document-units="px"
     inkscape:current-layer="layer1"
     showgrid="false"
     inkscape:window-width="1600"
     inkscape:window-height="875"
     inkscape:window-x="0"
     inkscape:window-y="0"
     inkscape:window-maximized="1" />
  <metadata
     id="metadata7">
    <rdf:RDF>
      <cc:Work
         rdf:about="">
        <dc:format>image/svg+xml</dc:format>
        <dc:type
           rdf:resource="http://purl.org/dc/dcmitype/StillImage" />
        <dc:title />
      </cc:Work>
    </rdf:RDF>
  </metadata>
  <g
     inkscape:label="Layer 1"
     inkscape:groupmode="layer"
     id="layer1"
     transform="translate(0,-952.36218)">
    <rect
       style="fill:#ffffff;fill-opacity:0.87058824;stroke:#000000;stroke-width:3.90857029;stroke-miterlimit:4;stroke-opacity:0.94117647;stroke-dasharray:none;stroke-dashoffset:0"
       id="rect2985"
       width="96.103889"
       height="86.039467"
       x="1.9556264"
       y="959.99268"
       ry="5.7359662" />
    <path
       style="fill:#ffffff;fill-opacity:0.87058824;stroke:#000000;stroke-width:1.65657568;stroke-miterlimit:4;stroke-opacity:0.94117647;stroke-dashoffset:0"
       d="m 11.203584,1007.4459 52.710483,0 c 2.263691,0 4.086085,2.445 4.086085,5.4825 l 0,13.0105 3.560837,2.3889 -3.560837,1.8375 0,1.4036 c 0,2.8536 -1.822394,5.4825 -4.086085,5.4825 l -52.710483,0 c -2.263691,0 -4.0860838,-2.4452 -4.0860838,-5.4825 l 0,-18.6405 c 0,-3.0375 1.8223928,-5.4825 4.0860838,-5.4825 z"
       id="rect2987-8"
       inkscape:connector-curvature="0"
       sodipodi:nodetypes="ssscccssssss" />
    <path
       style="fill:#000000;stroke:#000000;stroke-width:1.7078011;stroke-linecap:butt;stroke-linejoin:miter;stroke-miterlimit:4;stroke-opacity:1;stroke-dasharray:none"
       d="m 10.064735,1012.7104 55.051278,0"
       id="path3029-37-5"
       inkscape:connector-curvature="0"
       sodipodi:nodetypes="cc" />
    <path
       style="fill:#000000;stroke:#000000;stroke-width:1.7078011;stroke-linecap:butt;stroke-linejoin:miter;stroke-miterlimit:4;stroke-opacity:1;stroke-dasharray:none"
       d="m 10.064735,1032.4873 55.051278,0"
       id="path3029-37-25"
       inkscape:connector-curvature="0"
       sodipodi:nodetypes="cc" />
    <path
       style="fill:#000000;stroke:#000000;stroke-width:1.7078011;stroke-linecap:butt;stroke-linejoin:miter;stroke-miterlimit:4;stroke-opacity:1;stroke-dasharray:none"
       d="m 10.064735,1027.5431 55.051278,0"
       id="path3029-37-3"
       inkscape:connector-curvature="0"
       sodipodi:nodetypes="cc" />
    <path
       style="fill:#000000;stroke:#000000;stroke-width:1.7078011;stroke-linecap:butt;stroke-linejoin:miter;stroke-miterlimit:4;stroke-opacity:1;stroke-dasharray:none"
       d="m 10.064735,1022.5989 55.051278,0"
       id="path3029-37-6"
       inkscape:connector-curvature="0"
       sodipodi:nodetypes="cc" />
    <path
       style="fill:#000000;stroke:#000000;stroke-width:1.7078011;stroke-linecap:butt;stroke-linejoin:miter;stroke-miterlimit:4;stroke-opacity:1;stroke-dasharray:none"
       d="m 10.064735,1017.6547 55.051278,0"
       id="path3029-37-59"
       inkscape:connector-curvature="0"
       sodipodi:nodetypes="cc" />
    <path
       style="fill:#000000;stroke:none"
       d="m 73.051464,1011.5646 c 0.01636,0 0.02131,0.016 0.03327,0.03 2.033129,2.2601 7.106187,8.1216 7.750696,8.8695 0.421266,-0.2524 0.853976,-0.4754 1.238144,-0.7798 0.140538,-0.2764 0.304152,-0.5657 0.39549,-0.8614 0.0673,-0.2962 0.104208,-0.6229 0.31354,-0.8629 0.444859,0.5724 0.768667,1.2804 1.433755,1.6398 0.501861,0.3823 0.97052,0.7836 1.485575,1.1391 0.133623,-0.1153 0.250472,-0.2963 0.448616,-0.2915 1.330679,0.2659 2.515416,0.9973 3.816281,1.3519 0.369088,0.1109 0.529912,0.4969 0.881686,0.6274 0.359384,0.1021 0.587009,0.419 0.886824,0.6081 1.146409,0.6155 2.056526,1.6048 2.810638,2.6469 -1.587437,11.4434 -3.844448,16.1161 -8.268699,11.979 -0.165873,-1.8393 -0.571256,-3.0249 -0.933053,-4.832 -0.249281,-1.2573 -0.335127,-2.6207 -1.182882,-3.6515 -0.808102,0.3997 -1.675476,0.5892 -2.567417,0.6706 -1.018226,0.3495 -2.074665,0.6413 -3.120969,0.8927 -0.495655,0.091 -0.672726,0.6013 -1.070427,0.8454 -0.19754,0.1282 -0.417244,0.2539 -0.665016,0.254 -0.528797,0.1242 -1.012788,-0.1733 -1.494233,-0.3386 -0.368971,-0.2016 -0.649464,-0.596 -0.740353,-1.0011 -0.09461,-0.4363 -0.278259,-0.8334 -0.316083,-1.2787 -0.0092,-0.4616 0.318407,-0.8211 0.579,-1.1622 0.815534,-1.2619 2.200817,-1.9458 3.153046,-3.0866 0.324829,-0.2876 0.366942,-0.755 0.47269,-1.1496 0.16872,-0.8456 0.493668,-1.6929 1.095256,-2.3206 -0.952014,-1.3582 -4.952929,-7.075 -6.67272,-9.5892 -0.07067,-0.1034 0.122725,-0.3585 0.237351,-0.3482 z"
       id="path3032"
       inkscape:connector-curvature="0"
       sodipodi:nodetypes="cccccccccccccccccccccccccccccc" />
    <path
       d="m 24.825339,987.93452 c -0.519969,-1.35872 -3.995758,-5.83401 -4.715532,-6.07378 -0.718856,-0.23931 -2.237879,-0.15985 -2.237879,-0.15985 -0.67935,-7.63231 -2.357309,-8.47105 -3.515747,-9.31026 -1.158902,-0.83874 -1.039472,2.47812 -1.039472,2.47812 -0.399624,-1.39867 -2.437686,-3.67652 -3.8363667,-3.31686 -1.3986711,0.35967 -0.6389325,4.9553 -0.4391181,6.23316 0.2007291,1.27927 1.9981048,3.1166 2.6765418,4.11565 0.679355,0.99861 0.320161,1.8778 0.320161,1.8778 -0.55948,0.79965 -0.479553,2.81064 -0.479553,2.81064 -1.397751,-0.22693 -2.7564683,1.38532 -2.7564683,1.38532 0.177086,10.35447 3.8747853,11.28561 10.4287353,8.95062 0,0 0.16031,0.1998 0.838747,-0.63987 0.679815,-0.83919 -0.07947,-2.15745 -0.278818,-2.43769 -0.19935,-0.2788 -0.599433,-2.03848 -0.599433,-2.03848 0,0 2.676546,-0.15985 3.316402,-0.47959 0.638012,-0.3183 2.836847,-2.03666 2.3178,-3.39493 z"
       id="path3"
       inkscape:connector-curvature="0"
       sodipodi:nodetypes="cccccsccccccccccc" />
    <path
       style="fill:#ffffff;fill-opacity:0.87058824;stroke:#000000;stroke-width:1.65657568;stroke-miterlimit:4;stroke-opacity:0.94117647;stroke-dashoffset:0"
       d="m 88.595381,967.82986 -52.710483,0 c -2.263691,0 -4.086083,2.4452 -4.086083,5.4825 l 0,13.01059 -3.560839,2.3889 3.560839,1.8376 0,1.40345 c 0,2.85355 1.822392,5.48252 4.086083,5.48252 l 52.710483,0 c 2.263692,0 4.086083,-2.4452 4.086083,-5.48252 l 0,-18.64054 c 0,-3.0373 -1.822391,-5.4825 -4.086083,-5.4825 z"
       id="rect2987-8-2"
       inkscape:connector-curvature="0"
       sodipodi:nodetypes="ssscccssssss" />
    <path
       style="fill:none;stroke:#000000;stroke-width:1.7078011;stroke-linecap:butt;stroke-linejoin:miter;stroke-miterlimit:4;stroke-opacity:1;stroke-dasharray:none"
       d="m 89.925605,973.09453 -55.051279,0"
       id="path3029-37-5-8"
       inkscape:connector-curvature="0"
       sodipodi:nodetypes="cc" />
    <path
       style="fill:none;stroke:#000000;stroke-width:1.7078011;stroke-linecap:butt;stroke-linejoin:miter;stroke-miterlimit:4;stroke-opacity:1;stroke-dasharray:none"
       d="m 89.925605,992.87129 -55.051279,0"
       id="path3029-37-25-2"
       inkscape:connector-curvature="0"
       sodipodi:nodetypes="cc" />
    <path
       style="fill:none;stroke:#000000;stroke-width:1.7078011;stroke-linecap:butt;stroke-linejoin:miter;stroke-miterlimit:4;stroke-opacity:1;stroke-dasharray:none"
       d="m 89.925605,987.92711 -55.051279,0"
       id="path3029-37-3-6"
       inkscape:connector-curvature="0"
       sodipodi:nodetypes="cc" />
    <path
       style="fill:none;stroke:#000000;stroke-width:1.7078011;stroke-linecap:butt;stroke-linejoin:miter;stroke-miterlimit:4;stroke-opacity:1;stroke-dasharray:none"
       d="m 89.925605,982.98291 -55.051279,0"
       id="path3029-37-6-9"
       inkscape:connector-curvature="0"
       sodipodi:nodetypes="cc" />
    <path
       style="fill:none;stroke:#000000;stroke-width:1.7078011;stroke-linecap:butt;stroke-linejoin:miter;stroke-miterlimit:4;stroke-opacity:1;stroke-dasharray:none"
       d="m 89.925605,978.03871 -55.051279,0"
       id="path3029-37-59-2"
       inkscape:connector-curvature="0"
       sodipodi:nodetypes="cc" />
  </g>
</svg>
