<svg xmlns:dc="http://purl.org/dc/elements/1.1/" xmlns:cc="http://creativecommons.org/ns#" xmlns:rdf="http://www.w3.org/1999/02/22-rdf-syntax-ns#" xmlns:svg="http://www.w3.org/2000/svg" xmlns="http://www.w3.org/2000/svg" xmlns:sodipodi="http://sodipodi.sourceforge.net/DTD/sodipodi-0.dtd" xmlns:inkscape="http://www.inkscape.org/namespaces/inkscape" width="100" height="100" id="svg2" version="1.1" inkscape:version="0.48.4 r9939" sodipodi:docname="glider-emblem.svg">
  <defs id="defs4"/>
  <sodipodi:namedview id="base" pagecolor="#ffffff" bordercolor="#666666" borderopacity="1.0" inkscape:pageopacity="0.0" inkscape:pageshadow="2" inkscape:zoom="0.35" inkscape:cx="438.30472" inkscape:cy="461.57458" inkscape:document-units="px" inkscape:current-layer="layer1" showgrid="false" showguides="true" inkscape:guide-bbox="true" inkscape:window-width="1366" inkscape:window-height="706" inkscape:window-x="-8" inkscape:window-y="-8" inkscape:window-maximized="1"/>
  <metadata id="metadata7">
    <rdf:RDF>
      <cc:Work rdf:about="">
        <dc:format>image/svg+xml</dc:format>
        <dc:type rdf:resource="http://purl.org/dc/dcmitype/StillImage"/>
        <dc:title/>
      </cc:Work>
    </rdf:RDF>
  </metadata>
  <g inkscape:label="Capa 1" inkscape:groupmode="layer" id="layer1" transform="translate(0,-952.36218)">
    <path id="path3799-7-4" style="fill:none;stroke:#000000;stroke-width:3.73095989;stroke-linecap:butt;stroke-linejoin:miter;stroke-miterlimit:4;stroke-opacity:1;stroke-dasharray:none" d="M 94.34394,986.31279 5.6563561,986.19358 m 88.6875819,32.24092 -88.6875819,-0.1192 m 60.4526229,-60.23744 0,88.56834 m -32.121691,-88.56837 0,88.56837 m -30.2448202,-90.54157 0,92.25077 92.5150612,0.2643 0,-92.25074 z m -1.876988,-1.87699 0,95.99396 96.2690402,0.2751 0,-95.994 z" inkscape:connector-curvature="0"/>
    <path sodipodi:type="arc" style="stroke-width:39.95399857;stroke-miterlimit:4;stroke-dasharray:none" id="path3856" sodipodi:cx="838.42664" sodipodi:cy="826.25378" sodipodi:rx="109.09647" sodipodi:ry="109.09647" d="m 947.52311,826.25378 c 0,60.25232 -48.84416,109.09648 -109.09647,109.09648 -60.25232,0 -109.09648,-48.84416 -109.09648,-109.09648 0,-60.25231 48.84416,-109.09647 109.09648,-109.09647 60.25231,0 109.09647,48.84416 109.09647,109.09647 z" transform="matrix(0.09937151,0,0,0.09937152,-2.2379569,951.33384)"/>
    <path sodipodi:type="arc" style="stroke-width:39.95399857;stroke-miterlimit:4;stroke-dasharray:none" id="path3856-0" sodipodi:cx="838.42664" sodipodi:cy="826.25378" sodipodi:rx="109.09647" sodipodi:ry="109.09647" d="m 947.52311,826.25378 c 0,60.25232 -48.84416,109.09648 -109.09647,109.09648 -60.25232,0 -109.09648,-48.84416 -109.09648,-109.09648 0,-60.25231 48.84416,-109.09647 109.09648,-109.09647 60.25231,0 109.09647,48.84416 109.09647,109.09647 z" transform="matrix(0.09937151,0,0,0.09937152,-2.2379569,920.49699)"/>
    <path sodipodi:type="arc" style="stroke-width:39.95399857;stroke-miterlimit:4;stroke-dasharray:none" id="path3856-9" sodipodi:cx="838.42664" sodipodi:cy="826.25378" sodipodi:rx="109.09647" sodipodi:ry="109.09647" d="m 947.52311,826.25378 c 0,60.25232 -48.84416,109.09648 -109.09647,109.09648 -60.25232,0 -109.09648,-48.84416 -109.09648,-109.09648 0,-60.25231 48.84416,-109.09647 109.09648,-109.09647 60.25231,0 109.09647,48.84416 109.09647,109.09647 z" transform="matrix(0.09937151,0,0,0.09937152,-34.038463,950.85202)"/>
    <path sodipodi:type="arc" style="stroke-width:39.95399857;stroke-miterlimit:4;stroke-dasharray:none" id="path3856-9-4" sodipodi:cx="838.42664" sodipodi:cy="826.25378" sodipodi:rx="109.09647" sodipodi:ry="109.09647" d="m 947.52311,826.25378 c 0,60.25232 -48.84416,109.09648 -109.09647,109.09648 -60.25232,0 -109.09648,-48.84416 -109.09648,-109.09648 0,-60.25231 48.84416,-109.09647 109.09648,-109.09647 60.25231,0 109.09647,48.84416 109.09647,109.09647 z" transform="matrix(0.09937151,0,0,0.09937152,-64.875317,950.85202)"/>
    <path sodipodi:type="arc" style="stroke-width:39.95399857;stroke-miterlimit:4;stroke-dasharray:none" id="path3856-0-8" sodipodi:cx="838.42664" sodipodi:cy="826.25378" sodipodi:rx="109.09647" sodipodi:ry="109.09647" d="m 947.52311,826.25378 c 0,60.25232 -48.84416,109.09648 -109.09647,109.09648 -60.25232,0 -109.09648,-48.84416 -109.09648,-109.09648 0,-60.25231 48.84416,-109.09647 109.09648,-109.09647 60.25231,0 109.09647,48.84416 109.09647,109.09647 z" transform="matrix(0.09937151,0,0,0.09937152,-34.038463,889.17831)"/>
  </g>
</svg>